<?xml version="1.0" encoding="UTF-8" standalone="no"?>
<!-- Created with Inkscape (http://www.inkscape.org/) -->

<svg
   xmlns:dc="http://purl.org/dc/elements/1.1/"
   xmlns:cc="http://creativecommons.org/ns#"
   xmlns:rdf="http://www.w3.org/1999/02/22-rdf-syntax-ns#"
   xmlns:svg="http://www.w3.org/2000/svg"
   xmlns="http://www.w3.org/2000/svg"
   xmlns:sodipodi="http://sodipodi.sourceforge.net/DTD/sodipodi-0.dtd"
   xmlns:inkscape="http://www.inkscape.org/namespaces/inkscape"
   width="792pt"
   height="612pt"
   id="svg2995"
   version="1.1"
   inkscape:version="0.48.3.1 r9886"
   sodipodi:docname="Chassis2.svg">
  <defs
     id="defs2997" />
  <sodipodi:namedview
     inkscape:document-units="in"
     pagecolor="#ffffff"
     bordercolor="#666666"
     borderopacity="1.0"
     inkscape:pageopacity="0.0"
     inkscape:pageshadow="2"
     inkscape:zoom="1.7366334"
     inkscape:cx="882.56378"
     inkscape:cy="472.27857"
     inkscape:current-layer="layer1"
     id="namedview2999"
     showgrid="true"
     units="in"
     inkscape:snap-global="true"
     inkscape:window-width="1600"
     inkscape:window-height="838"
     inkscape:window-x="-8"
     inkscape:window-y="-8"
     inkscape:window-maximized="1"
     borderlayer="true"
     inkscape:snap-grids="true"
     inkscape:snap-to-guides="true">
    <inkscape:grid
       type="xygrid"
       id="grid3839"
       empspacing="8"
       visible="true"
       enabled="true"
       snapvisiblegridlinesonly="false"
       units="in"
       spacingx="0.0625in"
       spacingy="0.0625in"
       dotted="false" />
  </sodipodi:namedview>
  <metadata
     id="metadata3001">
    <rdf:RDF>
      <cc:Work
         rdf:about="">
        <dc:format>image/svg+xml</dc:format>
        <dc:type
           rdf:resource="http://purl.org/dc/dcmitype/StillImage" />
        <dc:title></dc:title>
      </cc:Work>
    </rdf:RDF>
  </metadata>
  <g
     inkscape:label="Layer 1"
     inkscape:groupmode="layer"
     id="layer1">
    <rect
       style="fill:#ffffff;stroke:#ff0000;stroke-width:0.70475912;stroke-linejoin:round;stroke-miterlimit:4;stroke-dasharray:none"
       id="rect3006"
       width="291.79523"
       height="269.29523"
       x="-635.10992"
       y="-314.44626"
       ry="0"
       transform="scale(-1,-1)" />
    <path
       sodipodi:type="arc"
       style="fill:#ffffff;stroke:#ff0000;stroke-width:0.70866144;stroke-linejoin:round;stroke-miterlimit:4;stroke-dasharray:none"
       id="path3780"
       sodipodi:cx="434.46127"
       sodipodi:cy="330.53873"
       sodipodi:rx="5.4703541"
       sodipodi:ry="5.4703541"
       d="m 439.93163,330.53873 a 5.4703541,5.4703541 0 1 1 -10.94071,0 5.4703541,5.4703541 0 1 1 10.94071,0 z"
       transform="matrix(-0.99062594,0,0,-0.99468194,817.99078,615.27816)" />
    <path
       sodipodi:type="arc"
       style="fill:#ffffff;stroke:#ff0000;stroke-width:0.70866144;stroke-linejoin:round;stroke-miterlimit:4;stroke-dasharray:none"
       id="path3782"
       sodipodi:cx="434.46127"
       sodipodi:cy="567.20349"
       sodipodi:rx="6.0461807"
       sodipodi:ry="6.0461807"
       d="m 440.50745,567.20349 a 6.0461807,6.0461807 0 1 1 -12.09236,0 6.0461807,6.0461807 0 1 1 12.09236,0 z"
       transform="matrix(-0.99062594,0,0,-0.99468194,817.99078,637.13962)" />
    <rect
       style="fill:#ffffff;stroke:#ff0000;stroke-width:0.69584084;stroke-linejoin:round;stroke-miterlimit:4;stroke-dasharray:none"
       id="rect3786"
       width="22.506012"
       height="56.25"
       x="-623.85815"
       y="-111.93852"
       ry="6.392045"
       transform="scale(-1,-1)" />
    <rect
       style="fill:#ffffff;stroke:#ff0000;stroke-width:1.00622368;stroke-linejoin:round;stroke-miterlimit:4;stroke-dasharray:none"
       id="rect3786-7"
       width="23.646851"
       height="111.94814"
       x="-624.99902"
       y="-235.68852"
       ry="12.72138"
       transform="scale(-1,-1)" />
    <rect
       style="fill:#ffffff;stroke:#ff0000;stroke-width:0.69226688;stroke-linejoin:round;stroke-miterlimit:4;stroke-dasharray:none"
       id="rect3786-4"
       width="22.500013"
       height="55.688507"
       x="-623.85217"
       y="-303.18851"
       ry="6.3282394"
       transform="scale(-1,-1)" />
    <rect
       style="fill:#ffffff;stroke:#ff0000;stroke-width:0.6916346;stroke-linejoin:round;stroke-miterlimit:4;stroke-dasharray:none"
       id="rect3826"
       width="73.526245"
       height="11.25"
       x="-483.62842"
       y="-291.93851"
       ry="5.416667"
       transform="scale(-1,-1)" />
    <rect
       style="fill:#ffffff;stroke:#ff0000;stroke-width:0.69574785;stroke-linejoin:round;stroke-miterlimit:4;stroke-dasharray:none"
       id="rect3828"
       width="89.999992"
       height="11.25"
       x="-590.10217"
       y="-291.93851"
       ry="5.625"
       transform="scale(-1,-1)" />
    <rect
       style="fill:#ffffff;stroke:#ff0000;stroke-width:0.71578205;stroke-linejoin:round;stroke-miterlimit:4;stroke-dasharray:none"
       id="rect3826-0"
       width="78.75"
       height="11.25"
       x="-488.85217"
       y="-78.188522"
       ry="5.416667"
       transform="scale(-1,-1)" />
    <rect
       style="fill:#ffffff;stroke:#ff0000;stroke-width:0.69574785;stroke-linejoin:round;stroke-miterlimit:4;stroke-dasharray:none"
       id="rect3828-9"
       width="89.999992"
       height="11.25"
       x="-590.10217"
       y="-78.188522"
       ry="5.625"
       transform="scale(-1,-1)" />
    <path
       style="fill:none;stroke:#ff0000;stroke-width:0.75598025;stroke-linejoin:miter;stroke-miterlimit:4;stroke-dasharray:none"
       d="m 320.10217,21.938521 0,67.5 -16.875,0 0,-22.5 -16.875,0 0,22.5 L 258.75,90 c -13.91909,0.28314 -11.25,11.25 -11.25,11.25 l 0,157.5 c 0,9.47531 1.68174,11.44464 11.25,11.25 l 27.60217,-0.56148 0,22.5 16.875,0 0,-22.5 16.875,0 0,67.5 -269.999999,0 0,-314.999999 z"
       id="rect3878"
       inkscape:connector-curvature="0"
       sodipodi:nodetypes="ccccccscssccccccccc" />
    <path
       style="fill:none;stroke:#ff0000;stroke-width:0.52963752;stroke-linejoin:miter;stroke-miterlimit:4;stroke-dasharray:none"
       d="m 613.125,355.75135 0,167.37365 -219.375,0 -0.0726,28.4375 c -16.44429,0.0713 -34.43719,0.0408 -50.12113,-0.24075 L 343.75026,529.06367 360,528.75 l 0,-180 -16.875,0 0,-22.5 50.55242,0 -0.2679,29.50135 z"
       id="rect3901"
       inkscape:connector-curvature="0"
       sodipodi:nodetypes="ccccccccccccc" />
    <rect
       style="fill:none;stroke:#ff0000;stroke-width:0.84636074;stroke-linejoin:miter;stroke-miterlimit:4;stroke-dasharray:none"
       id="rect3873"
       width="112.5"
       height="146.25"
       x="371.25"
       y="365.625"
       ry="11.25" />
    <rect
       style="fill:none;stroke:#ff0000;stroke-width:0.82493043;stroke-linejoin:miter;stroke-miterlimit:4;stroke-dasharray:none"
       id="rect3873-5"
       width="106.875"
       height="146.25"
       x="495"
       y="365.625"
       ry="11.25" />
    <path
       style="fill:none;stroke:#ff0000;stroke-width:1.21214771;stroke-linejoin:miter;stroke-miterlimit:4;stroke-dasharray:none"
       d="M 675 112.5 L 675 247.5 L 720 247.5 L 720 241.875 L 765 241.875 L 765 247.5 L 855 247.5 L 855 241.875 L 928.125 241.875 L 928.125 247.5 L 967.5 247.5 L 967.5 112.5 L 928.125 112.5 L 928.125 118.125 L 855 118.125 L 855 112.5 L 765 112.5 L 765 118.125 L 720 118.125 L 720 112.5 L 675 112.5 z "
       id="rect4401" />
    <path
       inkscape:connector-curvature="0"
       style="fill:none;stroke:#ff0000;stroke-width:1.14189231;stroke-linejoin:miter;stroke-miterlimit:4"
       d="m 720,360 0,5.625 -24,0 -19.5,73.125 43.5,0 0,5.625 45,0 0,-5.625 90,0 0,5.625 73.125,0 0,-84.375 -73.125,0 0,5.625 -90,0 0,-5.625 -45,0 z"
       id="rect4403-2" />
    <rect
       style="fill:none;stroke:#ff0000;stroke-width:0.89999998;stroke-linejoin:miter;stroke-miterlimit:4;stroke-dasharray:none"
       id="rect4465"
       width="61.875"
       height="5.625"
       x="376.875"
       y="112.5" />
    <rect
       style="fill:none;stroke:#ff0000;stroke-width:0.89999998;stroke-linejoin:miter;stroke-miterlimit:4;stroke-dasharray:none"
       id="rect4467"
       width="84.375"
       height="5.625"
       x="517.5"
       y="112.5" />
    <rect
       style="fill:none;stroke:#ff0000;stroke-width:0.89999998;stroke-linejoin:miter;stroke-miterlimit:4;stroke-dasharray:none"
       id="rect4465-3"
       width="61.875"
       height="5.625"
       x="376.875"
       y="241.875" />
    <rect
       style="fill:none;stroke:#ff0000;stroke-width:0.89999998;stroke-linejoin:miter;stroke-miterlimit:4;stroke-dasharray:none"
       id="rect4467-1"
       width="84.375"
       height="5.625"
       x="517.5"
       y="241.875" />
    <rect
       style="fill:none;stroke:#0000ff;stroke-width:1.03519809;stroke-linejoin:miter;stroke-miterlimit:4;stroke-dasharray:none"
       id="rect4502"
       width="200.56"
       height="60.164803"
       x="675"
       y="371.25" />
    <rect
       style="fill:none;stroke:#0000ff;stroke-width:0.89999998000000003;stroke-linejoin:miter;stroke-miterlimit:4;stroke-dasharray:none"
       id="rect4504"
       width="253.125"
       height="84.375"
       x="675"
       y="360" />
    <path
       sodipodi:type="arc"
       style="fill:none;stroke:#ff0000;stroke-width:0.89999998;stroke-linejoin:miter;stroke-miterlimit:4;stroke-dasharray:none"
       id="path4506"
       sodipodi:cx="883.125"
       sodipodi:cy="371.25"
       sodipodi:rx="5.625"
       sodipodi:ry="5.625"
       d="m 888.75,371.25 a 5.625,5.625 0 1 1 -11.25,0 5.625,5.625 0 1 1 11.25,0 z"
       transform="matrix(0.87489064,0,0,0.87489064,102.39789,46.392463)" />
    <path
       sodipodi:type="arc"
       style="fill:none;stroke:#ff0000;stroke-width:0.89999998;stroke-linejoin:miter;stroke-miterlimit:4;stroke-dasharray:none"
       id="path4506-6"
       sodipodi:cx="883.125"
       sodipodi:cy="371.25"
       sodipodi:rx="5.625"
       sodipodi:ry="5.625"
       d="m 888.75,371.25 a 5.625,5.625 0 1 1 -11.25,0 5.625,5.625 0 1 1 11.25,0 z"
       transform="matrix(0.87489064,0,0,0.87489064,103.12291,106.69317)" />
    <path
       inkscape:connector-curvature="0"
       style="fill:none;stroke:#ff0000;stroke-width:1.14189231;stroke-linejoin:miter;stroke-miterlimit:4"
       d="m 720.13053,269.63117 0,5.625 -24,0 -19.5,73.125 43.5,0 0,5.625 45,0 0,-5.625 90,0 0,5.625 73.12505,0 0,-84.375 -73.12505,0 0,5.625 -90,0 0,-5.625 -45,0 z"
       id="rect4403-2-8" />
    <rect
       style="fill:none;stroke:#0000ff;stroke-width:1.03519809;stroke-linejoin:miter;stroke-miterlimit:4;stroke-dasharray:none"
       id="rect4502-8"
       width="200.56"
       height="60.164803"
       x="675.13055"
       y="280.8812" />
    <rect
       style="fill:none;stroke:#0000ff;stroke-width:0.89999998;stroke-linejoin:miter;stroke-miterlimit:4;stroke-dasharray:none"
       id="rect4504-2"
       width="253.125"
       height="84.375"
       x="675.13055"
       y="269.6312" />
    <path
       sodipodi:type="arc"
       style="fill:none;stroke:#ff0000;stroke-width:0.89999998;stroke-linejoin:miter;stroke-miterlimit:4;stroke-dasharray:none"
       id="path4506-7"
       sodipodi:cx="883.125"
       sodipodi:cy="371.25"
       sodipodi:rx="5.625"
       sodipodi:ry="5.625"
       d="m 888.75,371.25 a 5.625,5.625 0 1 1 -11.25,0 5.625,5.625 0 1 1 11.25,0 z"
       transform="matrix(0.87489064,0,0,0.87489064,102.52842,-43.976364)" />
    <path
       sodipodi:type="arc"
       style="fill:none;stroke:#ff0000;stroke-width:0.89999998;stroke-linejoin:miter;stroke-miterlimit:4;stroke-dasharray:none"
       id="path4506-6-7"
       sodipodi:cx="883.125"
       sodipodi:cy="371.25"
       sodipodi:rx="5.625"
       sodipodi:ry="5.625"
       d="m 888.75,371.25 a 5.625,5.625 0 1 1 -11.25,0 5.625,5.625 0 1 1 11.25,0 z"
       transform="matrix(0.87489064,0,0,0.87489064,103.25344,16.32435)" />
    <path
       style="fill:none;stroke:#ff0000;stroke-width:1.17697859;stroke-linejoin:miter;stroke-miterlimit:4;stroke-dasharray:none"
       d="M 1018.125 113.53125 L 1018.125 118.125 L 1001.7812 118.125 L 1001.7812 241.875 L 1018.125 241.875 L 1018.125 248.125 L 1057.5 248.125 L 1057.5 241.875 L 1080 241.875 L 1080 225 L 1085.8438 225 L 1085.8438 135 L 1080 135 L 1080 118.125 L 1057.5 118.125 L 1057.5 113.53125 L 1018.125 113.53125 z "
       id="rect4558" />
    <rect
       style="fill:none;stroke:#ff0000;stroke-width:0.89999998;stroke-linejoin:miter;stroke-miterlimit:4;stroke-dasharray:none"
       id="rect4595"
       width="5.625"
       height="90"
       x="736.875"
       y="135" />
    <rect
       style="fill:none;stroke:#ff0000;stroke-width:0.89999998;stroke-linejoin:miter;stroke-miterlimit:4;stroke-dasharray:none"
       id="rect4597"
       width="5.625"
       height="90"
       x="849.375"
       y="135" />
    <rect
       style="fill:none;stroke:#ff0000;stroke-width:0.89999998;stroke-linejoin:miter;stroke-miterlimit:4;stroke-dasharray:none"
       id="rect4599"
       width="5.625"
       height="39.375"
       x="736.875"
       y="286.875" />
    <rect
       style="fill:none;stroke:#ff0000;stroke-width:0.89999998;stroke-linejoin:miter;stroke-miterlimit:4;stroke-dasharray:none"
       id="rect4601"
       width="5.625"
       height="45"
       x="849.375"
       y="286.875" />
    <rect
       style="fill:none;stroke:#ff0000;stroke-width:0.89999998;stroke-linejoin:miter;stroke-miterlimit:4;stroke-dasharray:none"
       id="rect4599-1"
       width="5.625"
       height="39.375"
       x="736.875"
       y="376.875" />
    <rect
       style="fill:none;stroke:#ff0000;stroke-width:0.89999998;stroke-linejoin:miter;stroke-miterlimit:4;stroke-dasharray:none"
       id="rect4601-2"
       width="5.625"
       height="45"
       x="849.375"
       y="376.875" />
  </g>
</svg>
