solid OpenSCAD_Model
  facet normal -0 0 -1
    outer loop
      vertex -25 0 0
      vertex -24.4537 5.19779 0
      vertex -24.4537 -5.19779 0
    endloop
  endfacet
  facet normal 0 -0 -1
    outer loop
      vertex -24.4537 -5.19779 0
      vertex -24.4537 5.19779 0
      vertex -22.8386 10.1684 0
    endloop
  endfacet
  facet normal 0 0 -1
    outer loop
      vertex -24.4537 -5.19779 0
      vertex -22.8386 10.1684 0
      vertex -20.2254 14.6946 0
    endloop
  endfacet
  facet normal 0 0 -1
    outer loop
      vertex -24.4537 -5.19779 0
      vertex -20.2254 14.6946 0
      vertex -16.7283 18.5786 0
    endloop
  endfacet
  facet normal 0 0 -1
    outer loop
      vertex -24.4537 -5.19779 0
      vertex -16.7283 18.5786 0
      vertex -12.5 21.6506 0
    endloop
  endfacet
  facet normal 0 0 -1
    outer loop
      vertex -24.4537 -5.19779 0
      vertex -12.5 21.6506 0
      vertex -7.72542 23.7764 0
    endloop
  endfacet
  facet normal 0 0 -1
    outer loop
      vertex -24.4537 -5.19779 0
      vertex -7.72542 23.7764 0
      vertex -2.61321 24.863 0
    endloop
  endfacet
  facet normal 0 0 -1
    outer loop
      vertex -24.4537 -5.19779 0
      vertex -2.61321 24.863 0
      vertex 2.61321 24.863 0
    endloop
  endfacet
  facet normal 0 0 -1
    outer loop
      vertex -24.4537 -5.19779 0
      vertex 2.61321 24.863 0
      vertex 7.72542 23.7764 0
    endloop
  endfacet
  facet normal 0 0 -1
    outer loop
      vertex -24.4537 -5.19779 0
      vertex 7.72542 23.7764 0
      vertex 12.5 21.6506 0
    endloop
  endfacet
  facet normal 0 0 -1
    outer loop
      vertex -24.4537 -5.19779 0
      vertex 12.5 21.6506 0
      vertex 16.7283 18.5786 0
    endloop
  endfacet
  facet normal 0 0 -1
    outer loop
      vertex -24.4537 -5.19779 0
      vertex 16.7283 18.5786 0
      vertex 20.2254 14.6946 0
    endloop
  endfacet
  facet normal 0 0 -1
    outer loop
      vertex 0.300519 2.85925 0
      vertex 20.2254 14.6946 0
      vertex 22.8386 10.1684 0
    endloop
  endfacet
  facet normal 0 0 -1
    outer loop
      vertex 1.4375 2.48982 0
      vertex 22.8386 10.1684 0
      vertex 24.4537 5.19779 0
    endloop
  endfacet
  facet normal -0 0 -1
    outer loop
      vertex 0.888424 -2.73429 0
      vertex 25 0 0
      vertex 24.4537 -5.19779 0
    endloop
  endfacet
  facet normal 0 0 -1
    outer loop
      vertex -24.4537 -5.19779 0
      vertex 24.4537 -5.19779 0
      vertex 22.8386 -10.1684 0
    endloop
  endfacet
  facet normal 0 0 -1
    outer loop
      vertex -24.4537 -5.19779 0
      vertex 22.8386 -10.1684 0
      vertex 20.2254 -14.6946 0
    endloop
  endfacet
  facet normal 0 0 -1
    outer loop
      vertex -24.4537 -5.19779 0
      vertex 20.2254 -14.6946 0
      vertex 16.7283 -18.5786 0
    endloop
  endfacet
  facet normal 0 0 -1
    outer loop
      vertex -24.4537 -5.19779 0
      vertex 16.7283 -18.5786 0
      vertex 12.5 -21.6506 0
    endloop
  endfacet
  facet normal 0 0 -1
    outer loop
      vertex -24.4537 -5.19779 0
      vertex 12.5 -21.6506 0
      vertex 7.72542 -23.7764 0
    endloop
  endfacet
  facet normal 0 0 -1
    outer loop
      vertex -24.4537 -5.19779 0
      vertex 7.72542 -23.7764 0
      vertex 2.61321 -24.863 0
    endloop
  endfacet
  facet normal 0 0 -1
    outer loop
      vertex -24.4537 -5.19779 0
      vertex 2.61321 -24.863 0
      vertex -2.61321 -24.863 0
    endloop
  endfacet
  facet normal 0 0 -1
    outer loop
      vertex -24.4537 -5.19779 0
      vertex -2.61321 -24.863 0
      vertex -7.72542 -23.7764 0
    endloop
  endfacet
  facet normal 0 0 -1
    outer loop
      vertex -24.4537 -5.19779 0
      vertex -7.72542 -23.7764 0
      vertex -12.5 -21.6506 0
    endloop
  endfacet
  facet normal 0 0 -1
    outer loop
      vertex -24.4537 -5.19779 0
      vertex -12.5 -21.6506 0
      vertex -16.7283 -18.5786 0
    endloop
  endfacet
  facet normal 0 0 -1
    outer loop
      vertex -24.4537 -5.19779 0
      vertex -16.7283 -18.5786 0
      vertex -20.2254 -14.6946 0
    endloop
  endfacet
  facet normal 0 0 -1
    outer loop
      vertex -24.4537 -5.19779 0
      vertex -20.2254 -14.6946 0
      vertex -22.8386 -10.1684 0
    endloop
  endfacet
  facet normal 0 0 -1
    outer loop
      vertex -2 -2.05186 0
      vertex -24.4537 -5.19779 0
      vertex -2 2.05186 0
    endloop
  endfacet
  facet normal 0 0 -1
    outer loop
      vertex -0.888424 -2.73429 0
      vertex -24.4537 -5.19779 0
      vertex -1.4375 -2.48982 0
    endloop
  endfacet
  facet normal 0 0 -1
    outer loop
      vertex -24.4537 -5.19779 0
      vertex -2 -2.05186 0
      vertex -1.92375 -2.13654 0
    endloop
  endfacet
  facet normal 0 0 -1
    outer loop
      vertex -24.4537 -5.19779 0
      vertex -1.92375 -2.13654 0
      vertex -1.4375 -2.48982 0
    endloop
  endfacet
  facet normal 0 0 -1
    outer loop
      vertex 0.888424 -2.73429 0
      vertex 24.4537 -5.19779 0
      vertex 0.300519 -2.85925 0
    endloop
  endfacet
  facet normal 0 0 -1
    outer loop
      vertex -24.4537 -5.19779 0
      vertex -0.888424 -2.73429 0
      vertex -0.300519 -2.85925 0
    endloop
  endfacet
  facet normal -0 0 -1
    outer loop
      vertex -24.4537 -5.19779 0
      vertex -0.300519 -2.85925 0
      vertex 24.4537 -5.19779 0
    endloop
  endfacet
  facet normal 0 0 -1
    outer loop
      vertex -0.300519 -2.85925 0
      vertex 0.300519 -2.85925 0
      vertex 24.4537 -5.19779 0
    endloop
  endfacet
  facet normal -0 0 -1
    outer loop
      vertex 1.4375 -2.48982 0
      vertex 25 0 0
      vertex 0.888424 -2.73429 0
    endloop
  endfacet
  facet normal -0 0 -1
    outer loop
      vertex 1.92375 -2.13654 0
      vertex 25 0 0
      vertex 1.4375 -2.48982 0
    endloop
  endfacet
  facet normal -0 0 -1
    outer loop
      vertex 2 2.05186 0
      vertex 24.4537 5.19779 0
      vertex 25 0 0
    endloop
  endfacet
  facet normal 0 0 -1
    outer loop
      vertex 1.92375 -2.13654 0
      vertex 2 -2.05186 0
      vertex 25 0 0
    endloop
  endfacet
  facet normal 0 0 -1
    outer loop
      vertex 2 2.05186 0
      vertex 25 0 0
      vertex 2 -2.05186 0
    endloop
  endfacet
  facet normal 0 -0 -1
    outer loop
      vertex 2 2.05186 0
      vertex 1.92375 2.13654 0
      vertex 24.4537 5.19779 0
    endloop
  endfacet
  facet normal -0 0 -1
    outer loop
      vertex 0.888424 2.73429 0
      vertex 22.8386 10.1684 0
      vertex 1.4375 2.48982 0
    endloop
  endfacet
  facet normal -0 0 -1
    outer loop
      vertex 0.300519 2.85925 0
      vertex 22.8386 10.1684 0
      vertex 0.888424 2.73429 0
    endloop
  endfacet
  facet normal -0 0 -1
    outer loop
      vertex -0.300519 2.85925 0
      vertex 20.2254 14.6946 0
      vertex 0.300519 2.85925 0
    endloop
  endfacet
  facet normal -0 0 -1
    outer loop
      vertex 1.4375 2.48982 0
      vertex 24.4537 5.19779 0
      vertex 1.92375 2.13654 0
    endloop
  endfacet
  facet normal 0 0 -1
    outer loop
      vertex -0.888424 2.73429 0
      vertex 20.2254 14.6946 0
      vertex -0.300519 2.85925 0
    endloop
  endfacet
  facet normal 0 0 -1
    outer loop
      vertex -24.4537 -5.19779 0
      vertex 20.2254 14.6946 0
      vertex -0.888424 2.73429 0
    endloop
  endfacet
  facet normal 0 0 -1
    outer loop
      vertex -24.4537 -5.19779 0
      vertex -0.888424 2.73429 0
      vertex -1.4375 2.48982 0
    endloop
  endfacet
  facet normal 0 -0 -1
    outer loop
      vertex -2 2.05186 0
      vertex -24.4537 -5.19779 0
      vertex -1.92375 2.13654 0
    endloop
  endfacet
  facet normal 0 -0 -1
    outer loop
      vertex -1.92375 2.13654 0
      vertex -24.4537 -5.19779 0
      vertex -1.4375 2.48982 0
    endloop
  endfacet
  facet normal -0.994522 0.104528 0
    outer loop
      vertex -25 0 0
      vertex -25 0 10
      vertex -24.4537 5.19779 0
    endloop
  endfacet
  facet normal -0.994522 0.104528 0
    outer loop
      vertex -24.4537 5.19779 0
      vertex -25 0 10
      vertex -24.4537 5.19779 10
    endloop
  endfacet
  facet normal -0.994522 -0.104528 -0
    outer loop
      vertex -25 0 0
      vertex -24.4537 -5.19779 0
      vertex -25 0 10
    endloop
  endfacet
  facet normal -0.994522 -0.104528 0
    outer loop
      vertex -25 0 10
      vertex -24.4537 -5.19779 0
      vertex -24.4537 -5.19779 10
    endloop
  endfacet
  facet normal -0.951056 -0.309017 -0
    outer loop
      vertex -24.4537 -5.19779 0
      vertex -22.8386 -10.1684 0
      vertex -24.4537 -5.19779 10
    endloop
  endfacet
  facet normal -0.951056 -0.309017 0
    outer loop
      vertex -24.4537 -5.19779 10
      vertex -22.8386 -10.1684 0
      vertex -22.8386 -10.1684 10
    endloop
  endfacet
  facet normal -0.866025 -0.5 -0
    outer loop
      vertex -22.8386 -10.1684 0
      vertex -20.2254 -14.6946 0
      vertex -22.8386 -10.1684 10
    endloop
  endfacet
  facet normal -0.866025 -0.5 0
    outer loop
      vertex -22.8386 -10.1684 10
      vertex -20.2254 -14.6946 0
      vertex -20.2254 -14.6946 10
    endloop
  endfacet
  facet normal -0.743145 -0.669131 -0
    outer loop
      vertex -20.2254 -14.6946 0
      vertex -16.7283 -18.5786 0
      vertex -20.2254 -14.6946 10
    endloop
  endfacet
  facet normal -0.743145 -0.669131 0
    outer loop
      vertex -20.2254 -14.6946 10
      vertex -16.7283 -18.5786 0
      vertex -16.7283 -18.5786 10
    endloop
  endfacet
  facet normal -0.587785 -0.809017 0
    outer loop
      vertex -16.7283 -18.5786 10
      vertex -16.7283 -18.5786 0
      vertex -12.5 -21.6506 0
    endloop
  endfacet
  facet normal -0.587785 -0.809017 0
    outer loop
      vertex -12.5 -21.6506 10
      vertex -16.7283 -18.5786 10
      vertex -12.5 -21.6506 0
    endloop
  endfacet
  facet normal -0.406737 -0.913545 0
    outer loop
      vertex -12.5 -21.6506 10
      vertex -12.5 -21.6506 0
      vertex -7.72542 -23.7764 0
    endloop
  endfacet
  facet normal -0.406737 -0.913545 0
    outer loop
      vertex -7.72542 -23.7764 10
      vertex -12.5 -21.6506 10
      vertex -7.72542 -23.7764 0
    endloop
  endfacet
  facet normal -0.207912 -0.978148 0
    outer loop
      vertex -7.72542 -23.7764 10
      vertex -7.72542 -23.7764 0
      vertex -2.61321 -24.863 0
    endloop
  endfacet
  facet normal -0.207912 -0.978148 0
    outer loop
      vertex -2.61321 -24.863 10
      vertex -7.72542 -23.7764 10
      vertex -2.61321 -24.863 0
    endloop
  endfacet
  facet normal 0 -1 0
    outer loop
      vertex -2.61321 -24.863 10
      vertex -2.61321 -24.863 0
      vertex 2.61321 -24.863 0
    endloop
  endfacet
  facet normal 0 -1 0
    outer loop
      vertex 2.61321 -24.863 10
      vertex -2.61321 -24.863 10
      vertex 2.61321 -24.863 0
    endloop
  endfacet
  facet normal 0.207912 -0.978148 0
    outer loop
      vertex 2.61321 -24.863 10
      vertex 2.61321 -24.863 0
      vertex 7.72542 -23.7764 0
    endloop
  endfacet
  facet normal 0.207912 -0.978148 0
    outer loop
      vertex 7.72542 -23.7764 10
      vertex 2.61321 -24.863 10
      vertex 7.72542 -23.7764 0
    endloop
  endfacet
  facet normal 0.406737 -0.913545 0
    outer loop
      vertex 7.72542 -23.7764 10
      vertex 7.72542 -23.7764 0
      vertex 12.5 -21.6506 0
    endloop
  endfacet
  facet normal 0.406737 -0.913545 0
    outer loop
      vertex 12.5 -21.6506 10
      vertex 7.72542 -23.7764 10
      vertex 12.5 -21.6506 0
    endloop
  endfacet
  facet normal 0.587785 -0.809017 0
    outer loop
      vertex 12.5 -21.6506 10
      vertex 12.5 -21.6506 0
      vertex 16.7283 -18.5786 0
    endloop
  endfacet
  facet normal 0.587785 -0.809017 0
    outer loop
      vertex 16.7283 -18.5786 10
      vertex 12.5 -21.6506 10
      vertex 16.7283 -18.5786 0
    endloop
  endfacet
  facet normal 0.743145 -0.669131 0
    outer loop
      vertex 16.7283 -18.5786 10
      vertex 16.7283 -18.5786 0
      vertex 20.2254 -14.6946 0
    endloop
  endfacet
  facet normal 0.743145 -0.669131 0
    outer loop
      vertex 20.2254 -14.6946 10
      vertex 16.7283 -18.5786 10
      vertex 20.2254 -14.6946 0
    endloop
  endfacet
  facet normal 0.866025 -0.5 0
    outer loop
      vertex 20.2254 -14.6946 10
      vertex 20.2254 -14.6946 0
      vertex 22.8386 -10.1684 0
    endloop
  endfacet
  facet normal 0.866025 -0.5 0
    outer loop
      vertex 22.8386 -10.1684 10
      vertex 20.2254 -14.6946 10
      vertex 22.8386 -10.1684 0
    endloop
  endfacet
  facet normal 0.951056 -0.309017 0
    outer loop
      vertex 22.8386 -10.1684 10
      vertex 22.8386 -10.1684 0
      vertex 24.4537 -5.19779 0
    endloop
  endfacet
  facet normal 0.951056 -0.309017 0
    outer loop
      vertex 24.4537 -5.19779 10
      vertex 22.8386 -10.1684 10
      vertex 24.4537 -5.19779 0
    endloop
  endfacet
  facet normal 0.994522 -0.104528 0
    outer loop
      vertex 24.4537 -5.19779 10
      vertex 24.4537 -5.19779 0
      vertex 25 0 0
    endloop
  endfacet
  facet normal 0.994522 -0.104528 0
    outer loop
      vertex 25 0 10
      vertex 24.4537 -5.19779 10
      vertex 25 0 0
    endloop
  endfacet
  facet normal 0.994522 0.104528 0
    outer loop
      vertex 25 0 0
      vertex 24.4537 5.19779 0
      vertex 24.4537 5.19779 10
    endloop
  endfacet
  facet normal 0.994522 0.104528 -0
    outer loop
      vertex 25 0 10
      vertex 25 0 0
      vertex 24.4537 5.19779 10
    endloop
  endfacet
  facet normal 0.951056 0.309017 0
    outer loop
      vertex 24.4537 5.19779 0
      vertex 22.8386 10.1684 0
      vertex 22.8386 10.1684 10
    endloop
  endfacet
  facet normal 0.951056 0.309017 -0
    outer loop
      vertex 24.4537 5.19779 10
      vertex 24.4537 5.19779 0
      vertex 22.8386 10.1684 10
    endloop
  endfacet
  facet normal 0.866025 0.5 0
    outer loop
      vertex 22.8386 10.1684 0
      vertex 20.2254 14.6946 0
      vertex 20.2254 14.6946 10
    endloop
  endfacet
  facet normal 0.866025 0.5 -0
    outer loop
      vertex 22.8386 10.1684 10
      vertex 22.8386 10.1684 0
      vertex 20.2254 14.6946 10
    endloop
  endfacet
  facet normal 0.743145 0.669131 0
    outer loop
      vertex 20.2254 14.6946 0
      vertex 16.7283 18.5786 0
      vertex 16.7283 18.5786 10
    endloop
  endfacet
  facet normal 0.743145 0.669131 -0
    outer loop
      vertex 20.2254 14.6946 10
      vertex 20.2254 14.6946 0
      vertex 16.7283 18.5786 10
    endloop
  endfacet
  facet normal 0.587785 0.809017 0
    outer loop
      vertex 12.5 21.6506 0
      vertex 12.5 21.6506 10
      vertex 16.7283 18.5786 0
    endloop
  endfacet
  facet normal 0.587785 0.809017 0
    outer loop
      vertex 16.7283 18.5786 0
      vertex 12.5 21.6506 10
      vertex 16.7283 18.5786 10
    endloop
  endfacet
  facet normal 0.406737 0.913545 0
    outer loop
      vertex 7.72542 23.7764 0
      vertex 7.72542 23.7764 10
      vertex 12.5 21.6506 0
    endloop
  endfacet
  facet normal 0.406737 0.913545 0
    outer loop
      vertex 12.5 21.6506 0
      vertex 7.72542 23.7764 10
      vertex 12.5 21.6506 10
    endloop
  endfacet
  facet normal 0.207912 0.978148 0
    outer loop
      vertex 2.61321 24.863 0
      vertex 2.61321 24.863 10
      vertex 7.72542 23.7764 0
    endloop
  endfacet
  facet normal 0.207912 0.978148 0
    outer loop
      vertex 7.72542 23.7764 0
      vertex 2.61321 24.863 10
      vertex 7.72542 23.7764 10
    endloop
  endfacet
  facet normal 0 1 0
    outer loop
      vertex -2.61321 24.863 0
      vertex -2.61321 24.863 10
      vertex 2.61321 24.863 0
    endloop
  endfacet
  facet normal 0 1 0
    outer loop
      vertex 2.61321 24.863 0
      vertex -2.61321 24.863 10
      vertex 2.61321 24.863 10
    endloop
  endfacet
  facet normal -0.207912 0.978148 0
    outer loop
      vertex -7.72542 23.7764 0
      vertex -7.72542 23.7764 10
      vertex -2.61321 24.863 0
    endloop
  endfacet
  facet normal -0.207912 0.978148 0
    outer loop
      vertex -2.61321 24.863 0
      vertex -7.72542 23.7764 10
      vertex -2.61321 24.863 10
    endloop
  endfacet
  facet normal -0.406737 0.913545 0
    outer loop
      vertex -12.5 21.6506 0
      vertex -12.5 21.6506 10
      vertex -7.72542 23.7764 0
    endloop
  endfacet
  facet normal -0.406737 0.913545 0
    outer loop
      vertex -7.72542 23.7764 0
      vertex -12.5 21.6506 10
      vertex -7.72542 23.7764 10
    endloop
  endfacet
  facet normal -0.587785 0.809017 0
    outer loop
      vertex -16.7283 18.5786 0
      vertex -16.7283 18.5786 10
      vertex -12.5 21.6506 0
    endloop
  endfacet
  facet normal -0.587785 0.809017 0
    outer loop
      vertex -12.5 21.6506 0
      vertex -16.7283 18.5786 10
      vertex -12.5 21.6506 10
    endloop
  endfacet
  facet normal -0.743145 0.669131 0
    outer loop
      vertex -20.2254 14.6946 0
      vertex -20.2254 14.6946 10
      vertex -16.7283 18.5786 0
    endloop
  endfacet
  facet normal -0.743145 0.669131 0
    outer loop
      vertex -16.7283 18.5786 0
      vertex -20.2254 14.6946 10
      vertex -16.7283 18.5786 10
    endloop
  endfacet
  facet normal -0.866025 0.5 0
    outer loop
      vertex -22.8386 10.1684 0
      vertex -22.8386 10.1684 10
      vertex -20.2254 14.6946 0
    endloop
  endfacet
  facet normal -0.866025 0.5 0
    outer loop
      vertex -20.2254 14.6946 0
      vertex -22.8386 10.1684 10
      vertex -20.2254 14.6946 10
    endloop
  endfacet
  facet normal -0.951056 0.309017 0
    outer loop
      vertex -24.4537 5.19779 0
      vertex -24.4537 5.19779 10
      vertex -22.8386 10.1684 0
    endloop
  endfacet
  facet normal -0.951056 0.309017 0
    outer loop
      vertex -22.8386 10.1684 0
      vertex -24.4537 5.19779 10
      vertex -22.8386 10.1684 10
    endloop
  endfacet
  facet normal 1 0 0
    outer loop
      vertex -2 2.05186 0
      vertex -2 2.05186 13
      vertex -2 -2.05186 13
    endloop
  endfacet
  facet normal 1 0 0
    outer loop
      vertex -2 -2.05186 0
      vertex -2 2.05186 0
      vertex -2 -2.05186 13
    endloop
  endfacet
  facet normal 0.743144 -0.669132 0
    outer loop
      vertex -1.92375 2.13654 0
      vertex -1.92375 2.13654 13
      vertex -2 2.05186 13
    endloop
  endfacet
  facet normal 0.743144 -0.669132 0
    outer loop
      vertex -2 2.05186 0
      vertex -1.92375 2.13654 0
      vertex -2 2.05186 13
    endloop
  endfacet
  facet normal 0.587786 -0.809016 0
    outer loop
      vertex -1.4375 2.48982 0
      vertex -1.4375 2.48982 13
      vertex -1.92375 2.13654 13
    endloop
  endfacet
  facet normal 0.587786 -0.809016 0
    outer loop
      vertex -1.92375 2.13654 0
      vertex -1.4375 2.48982 0
      vertex -1.92375 2.13654 13
    endloop
  endfacet
  facet normal 0.406736 -0.913546 0
    outer loop
      vertex -0.888424 2.73429 0
      vertex -0.888424 2.73429 13
      vertex -1.4375 2.48982 13
    endloop
  endfacet
  facet normal 0.406736 -0.913546 0
    outer loop
      vertex -1.4375 2.48982 0
      vertex -0.888424 2.73429 0
      vertex -1.4375 2.48982 13
    endloop
  endfacet
  facet normal 0.207912 -0.978148 0
    outer loop
      vertex -0.300519 2.85925 0
      vertex -0.300519 2.85925 13
      vertex -0.888424 2.73429 13
    endloop
  endfacet
  facet normal 0.207912 -0.978148 0
    outer loop
      vertex -0.888424 2.73429 0
      vertex -0.300519 2.85925 0
      vertex -0.888424 2.73429 13
    endloop
  endfacet
  facet normal 0 -1 0
    outer loop
      vertex 0.300519 2.85925 0
      vertex 0.300519 2.85925 13
      vertex -0.300519 2.85925 13
    endloop
  endfacet
  facet normal -0 -1 -0
    outer loop
      vertex -0.300519 2.85925 0
      vertex 0.300519 2.85925 0
      vertex -0.300519 2.85925 13
    endloop
  endfacet
  facet normal -0.207912 -0.978148 -0
    outer loop
      vertex 0.888424 2.73429 0
      vertex 0.888424 2.73429 13
      vertex 0.300519 2.85925 13
    endloop
  endfacet
  facet normal -0.207912 -0.978148 -0
    outer loop
      vertex 0.300519 2.85925 0
      vertex 0.888424 2.73429 0
      vertex 0.300519 2.85925 13
    endloop
  endfacet
  facet normal -0.406736 -0.913546 -0
    outer loop
      vertex 1.4375 2.48982 0
      vertex 1.4375 2.48982 13
      vertex 0.888424 2.73429 13
    endloop
  endfacet
  facet normal -0.406736 -0.913546 -0
    outer loop
      vertex 0.888424 2.73429 0
      vertex 1.4375 2.48982 0
      vertex 0.888424 2.73429 13
    endloop
  endfacet
  facet normal -0.587786 -0.809016 -0
    outer loop
      vertex 1.92375 2.13654 0
      vertex 1.92375 2.13654 13
      vertex 1.4375 2.48982 13
    endloop
  endfacet
  facet normal -0.587786 -0.809016 -0
    outer loop
      vertex 1.4375 2.48982 0
      vertex 1.92375 2.13654 0
      vertex 1.4375 2.48982 13
    endloop
  endfacet
  facet normal -0.743144 -0.669132 0
    outer loop
      vertex 2 2.05186 13
      vertex 1.92375 2.13654 13
      vertex 2 2.05186 0
    endloop
  endfacet
  facet normal -0.743144 -0.669132 0
    outer loop
      vertex 2 2.05186 0
      vertex 1.92375 2.13654 13
      vertex 1.92375 2.13654 0
    endloop
  endfacet
  facet normal -1 0 0
    outer loop
      vertex 2 2.05186 13
      vertex 2 2.05186 0
      vertex 2 -2.05186 13
    endloop
  endfacet
  facet normal -1 0 0
    outer loop
      vertex 2 -2.05186 13
      vertex 2 2.05186 0
      vertex 2 -2.05186 0
    endloop
  endfacet
  facet normal -0.743144 0.669132 0
    outer loop
      vertex 2 -2.05186 13
      vertex 2 -2.05186 0
      vertex 1.92375 -2.13654 13
    endloop
  endfacet
  facet normal -0.743144 0.669132 0
    outer loop
      vertex 1.92375 -2.13654 13
      vertex 2 -2.05186 0
      vertex 1.92375 -2.13654 0
    endloop
  endfacet
  facet normal -0.587786 0.809016 0
    outer loop
      vertex 1.92375 -2.13654 13
      vertex 1.92375 -2.13654 0
      vertex 1.4375 -2.48982 13
    endloop
  endfacet
  facet normal -0.587786 0.809016 0
    outer loop
      vertex 1.4375 -2.48982 13
      vertex 1.92375 -2.13654 0
      vertex 1.4375 -2.48982 0
    endloop
  endfacet
  facet normal -0.406736 0.913546 0
    outer loop
      vertex 1.4375 -2.48982 13
      vertex 1.4375 -2.48982 0
      vertex 0.888424 -2.73429 13
    endloop
  endfacet
  facet normal -0.406736 0.913546 0
    outer loop
      vertex 0.888424 -2.73429 13
      vertex 1.4375 -2.48982 0
      vertex 0.888424 -2.73429 0
    endloop
  endfacet
  facet normal -0.207912 0.978148 0
    outer loop
      vertex 0.888424 -2.73429 13
      vertex 0.888424 -2.73429 0
      vertex 0.300519 -2.85925 13
    endloop
  endfacet
  facet normal -0.207912 0.978148 0
    outer loop
      vertex 0.300519 -2.85925 13
      vertex 0.888424 -2.73429 0
      vertex 0.300519 -2.85925 0
    endloop
  endfacet
  facet normal 0 1 0
    outer loop
      vertex 0.300519 -2.85925 13
      vertex 0.300519 -2.85925 0
      vertex -0.300519 -2.85925 13
    endloop
  endfacet
  facet normal 0 1 -0
    outer loop
      vertex -0.300519 -2.85925 13
      vertex 0.300519 -2.85925 0
      vertex -0.300519 -2.85925 0
    endloop
  endfacet
  facet normal 0.207912 0.978148 -0
    outer loop
      vertex -0.300519 -2.85925 13
      vertex -0.300519 -2.85925 0
      vertex -0.888424 -2.73429 13
    endloop
  endfacet
  facet normal 0.207912 0.978148 -0
    outer loop
      vertex -0.888424 -2.73429 13
      vertex -0.300519 -2.85925 0
      vertex -0.888424 -2.73429 0
    endloop
  endfacet
  facet normal 0.406736 0.913546 -0
    outer loop
      vertex -0.888424 -2.73429 13
      vertex -0.888424 -2.73429 0
      vertex -1.4375 -2.48982 13
    endloop
  endfacet
  facet normal 0.406736 0.913546 -0
    outer loop
      vertex -1.4375 -2.48982 13
      vertex -0.888424 -2.73429 0
      vertex -1.4375 -2.48982 0
    endloop
  endfacet
  facet normal 0.587786 0.809016 -0
    outer loop
      vertex -1.4375 -2.48982 13
      vertex -1.4375 -2.48982 0
      vertex -1.92375 -2.13654 13
    endloop
  endfacet
  facet normal 0.587786 0.809016 -0
    outer loop
      vertex -1.92375 -2.13654 13
      vertex -1.4375 -2.48982 0
      vertex -1.92375 -2.13654 0
    endloop
  endfacet
  facet normal 0.743144 0.669132 0
    outer loop
      vertex -2 -2.05186 13
      vertex -1.92375 -2.13654 13
      vertex -1.92375 -2.13654 0
    endloop
  endfacet
  facet normal 0.743144 0.669132 0
    outer loop
      vertex -2 -2.05186 0
      vertex -2 -2.05186 13
      vertex -1.92375 -2.13654 0
    endloop
  endfacet
  facet normal 0 0 1
    outer loop
      vertex -24.4537 5.19779 10
      vertex -25 0 10
      vertex -24.4537 -5.19779 10
    endloop
  endfacet
  facet normal -0 0 1
    outer loop
      vertex -24 0 10
      vertex -24.4537 5.19779 10
      vertex -24.4537 -5.19779 10
    endloop
  endfacet
  facet normal 0 0 1
    outer loop
      vertex -23.4755 4.98988 10
      vertex -21.9251 9.76168 10
      vertex -24.4537 5.19779 10
    endloop
  endfacet
  facet normal 0 0 1
    outer loop
      vertex 21.9251 9.76168 10
      vertex 23.4755 4.98988 10
      vertex 24.4537 5.19779 10
    endloop
  endfacet
  facet normal 0 0 1
    outer loop
      vertex 19.4164 14.1068 10
      vertex 21.9251 9.76168 10
      vertex 22.8386 10.1684 10
    endloop
  endfacet
  facet normal 0 0 1
    outer loop
      vertex 16.0591 17.8355 10
      vertex 19.4164 14.1068 10
      vertex 20.2254 14.6946 10
    endloop
  endfacet
  facet normal 0 0 1
    outer loop
      vertex 12 20.7846 10
      vertex 16.0591 17.8355 10
      vertex 16.7283 18.5786 10
    endloop
  endfacet
  facet normal 0 0 1
    outer loop
      vertex 7.41641 22.8254 10
      vertex 12 20.7846 10
      vertex 12.5 21.6506 10
    endloop
  endfacet
  facet normal 0 0 1
    outer loop
      vertex 2.50868 23.8685 10
      vertex 7.41641 22.8254 10
      vertex 7.72542 23.7764 10
    endloop
  endfacet
  facet normal 0 0 1
    outer loop
      vertex -2.50868 23.8685 10
      vertex 2.50868 23.8685 10
      vertex 2.61321 24.863 10
    endloop
  endfacet
  facet normal 0 0 1
    outer loop
      vertex -7.41641 22.8254 10
      vertex -2.50868 23.8685 10
      vertex -2.61321 24.863 10
    endloop
  endfacet
  facet normal 0 0 1
    outer loop
      vertex 23.4755 4.98988 10
      vertex 24 0 10
      vertex 25 0 10
    endloop
  endfacet
  facet normal 0 -0 1
    outer loop
      vertex -22.8386 10.1684 10
      vertex -24.4537 5.19779 10
      vertex -20.2254 14.6946 10
    endloop
  endfacet
  facet normal 0 0 1
    outer loop
      vertex -22.8386 -10.1684 10
      vertex -23.4755 -4.98988 10
      vertex -24.4537 -5.19779 10
    endloop
  endfacet
  facet normal -0 0 1
    outer loop
      vertex -23.4755 -4.98988 10
      vertex -24 0 10
      vertex -24.4537 -5.19779 10
    endloop
  endfacet
  facet normal 0 -0 1
    outer loop
      vertex 21.9251 -9.76168 10
      vertex 19.4164 -14.1068 10
      vertex 22.8386 -10.1684 10
    endloop
  endfacet
  facet normal 0 0 1
    outer loop
      vertex -16.0591 17.8355 10
      vertex -12 20.7846 10
      vertex -12.5 21.6506 10
    endloop
  endfacet
  facet normal 0 0 1
    outer loop
      vertex -20.2254 14.6946 10
      vertex -24.4537 5.19779 10
      vertex -21.9251 9.76168 10
    endloop
  endfacet
  facet normal 0 0 1
    outer loop
      vertex -20.2254 14.6946 10
      vertex -19.4164 14.1068 10
      vertex -16.7283 18.5786 10
    endloop
  endfacet
  facet normal 0 -0 1
    outer loop
      vertex -20.2254 14.6946 10
      vertex -21.9251 9.76168 10
      vertex -19.4164 14.1068 10
    endloop
  endfacet
  facet normal 0 0 1
    outer loop
      vertex -16.7283 18.5786 10
      vertex -16.0591 17.8355 10
      vertex -12.5 21.6506 10
    endloop
  endfacet
  facet normal 0 0 1
    outer loop
      vertex -19.4164 14.1068 10
      vertex -16.0591 17.8355 10
      vertex -16.7283 18.5786 10
    endloop
  endfacet
  facet normal 0 0 1
    outer loop
      vertex -12.5 21.6506 10
      vertex -12 20.7846 10
      vertex -7.72542 23.7764 10
    endloop
  endfacet
  facet normal 0 0 1
    outer loop
      vertex -7.72542 23.7764 10
      vertex -7.41641 22.8254 10
      vertex -2.61321 24.863 10
    endloop
  endfacet
  facet normal 0 0 1
    outer loop
      vertex -2.61321 24.863 10
      vertex -2.50868 23.8685 10
      vertex 2.61321 24.863 10
    endloop
  endfacet
  facet normal 0 -0 1
    outer loop
      vertex 2.61321 24.863 10
      vertex 2.50868 23.8685 10
      vertex 7.72542 23.7764 10
    endloop
  endfacet
  facet normal 0 -0 1
    outer loop
      vertex 7.72542 23.7764 10
      vertex 7.41641 22.8254 10
      vertex 12.5 21.6506 10
    endloop
  endfacet
  facet normal 0 -0 1
    outer loop
      vertex 12.5 21.6506 10
      vertex 12 20.7846 10
      vertex 16.7283 18.5786 10
    endloop
  endfacet
  facet normal 0 -0 1
    outer loop
      vertex 16.7283 18.5786 10
      vertex 16.0591 17.8355 10
      vertex 20.2254 14.6946 10
    endloop
  endfacet
  facet normal 0 -0 1
    outer loop
      vertex 20.2254 14.6946 10
      vertex 19.4164 14.1068 10
      vertex 22.8386 10.1684 10
    endloop
  endfacet
  facet normal 0 -0 1
    outer loop
      vertex 22.8386 10.1684 10
      vertex 21.9251 9.76168 10
      vertex 24.4537 5.19779 10
    endloop
  endfacet
  facet normal 0 -0 1
    outer loop
      vertex 24.4537 5.19779 10
      vertex 23.4755 4.98988 10
      vertex 25 0 10
    endloop
  endfacet
  facet normal 0 0 1
    outer loop
      vertex 25 0 10
      vertex 24 0 10
      vertex 24.4537 -5.19779 10
    endloop
  endfacet
  facet normal -0 0 1
    outer loop
      vertex 24.4537 -5.19779 10
      vertex 23.4755 -4.98988 10
      vertex 22.8386 -10.1684 10
    endloop
  endfacet
  facet normal 0 0 1
    outer loop
      vertex -12 20.7846 10
      vertex -7.41641 22.8254 10
      vertex -7.72542 23.7764 10
    endloop
  endfacet
  facet normal 0 0 1
    outer loop
      vertex 23.4755 -4.98988 10
      vertex 21.9251 -9.76168 10
      vertex 22.8386 -10.1684 10
    endloop
  endfacet
  facet normal 0 0 1
    outer loop
      vertex 22.8386 -10.1684 10
      vertex 19.4164 -14.1068 10
      vertex 20.2254 -14.6946 10
    endloop
  endfacet
  facet normal 0 0 1
    outer loop
      vertex 20.2254 -14.6946 10
      vertex 16.0591 -17.8355 10
      vertex 16.7283 -18.5786 10
    endloop
  endfacet
  facet normal 0 0 1
    outer loop
      vertex 16.7283 -18.5786 10
      vertex 12 -20.7846 10
      vertex 12.5 -21.6506 10
    endloop
  endfacet
  facet normal 0 0 1
    outer loop
      vertex 12.5 -21.6506 10
      vertex 7.41641 -22.8254 10
      vertex 7.72542 -23.7764 10
    endloop
  endfacet
  facet normal 0 0 1
    outer loop
      vertex 7.72542 -23.7764 10
      vertex 2.50868 -23.8685 10
      vertex 2.61321 -24.863 10
    endloop
  endfacet
  facet normal -0 0 1
    outer loop
      vertex 2.61321 -24.863 10
      vertex -2.50868 -23.8685 10
      vertex -2.61321 -24.863 10
    endloop
  endfacet
  facet normal 0 0 1
    outer loop
      vertex -2.61321 -24.863 10
      vertex -7.41641 -22.8254 10
      vertex -7.72542 -23.7764 10
    endloop
  endfacet
  facet normal 0 0 1
    outer loop
      vertex -7.72542 -23.7764 10
      vertex -12 -20.7846 10
      vertex -12.5 -21.6506 10
    endloop
  endfacet
  facet normal 0 0 1
    outer loop
      vertex -12.5 -21.6506 10
      vertex -16.0591 -17.8355 10
      vertex -16.7283 -18.5786 10
    endloop
  endfacet
  facet normal 0 0 1
    outer loop
      vertex -16.7283 -18.5786 10
      vertex -19.4164 -14.1068 10
      vertex -20.2254 -14.6946 10
    endloop
  endfacet
  facet normal 0 -0 1
    outer loop
      vertex 24 0 10
      vertex 23.4755 -4.98988 10
      vertex 24.4537 -5.19779 10
    endloop
  endfacet
  facet normal 0 0 1
    outer loop
      vertex -20.2254 -14.6946 10
      vertex -21.9251 -9.76168 10
      vertex -22.8386 -10.1684 10
    endloop
  endfacet
  facet normal -0 0 1
    outer loop
      vertex -21.9251 -9.76168 10
      vertex -23.4755 -4.98988 10
      vertex -22.8386 -10.1684 10
    endloop
  endfacet
  facet normal 0 -0 1
    outer loop
      vertex 19.4164 -14.1068 10
      vertex 16.0591 -17.8355 10
      vertex 20.2254 -14.6946 10
    endloop
  endfacet
  facet normal 0 -0 1
    outer loop
      vertex 16.0591 -17.8355 10
      vertex 12 -20.7846 10
      vertex 16.7283 -18.5786 10
    endloop
  endfacet
  facet normal 0 -0 1
    outer loop
      vertex 12 -20.7846 10
      vertex 7.41641 -22.8254 10
      vertex 12.5 -21.6506 10
    endloop
  endfacet
  facet normal 0 -0 1
    outer loop
      vertex 7.41641 -22.8254 10
      vertex 2.50868 -23.8685 10
      vertex 7.72542 -23.7764 10
    endloop
  endfacet
  facet normal 0 -0 1
    outer loop
      vertex 2.50868 -23.8685 10
      vertex -2.50868 -23.8685 10
      vertex 2.61321 -24.863 10
    endloop
  endfacet
  facet normal -0 0 1
    outer loop
      vertex -2.50868 -23.8685 10
      vertex -7.41641 -22.8254 10
      vertex -2.61321 -24.863 10
    endloop
  endfacet
  facet normal -0 0 1
    outer loop
      vertex -7.41641 -22.8254 10
      vertex -12 -20.7846 10
      vertex -7.72542 -23.7764 10
    endloop
  endfacet
  facet normal -0 0 1
    outer loop
      vertex -12 -20.7846 10
      vertex -16.0591 -17.8355 10
      vertex -12.5 -21.6506 10
    endloop
  endfacet
  facet normal -0 0 1
    outer loop
      vertex -16.0591 -17.8355 10
      vertex -19.4164 -14.1068 10
      vertex -16.7283 -18.5786 10
    endloop
  endfacet
  facet normal -0 0 1
    outer loop
      vertex -19.4164 -14.1068 10
      vertex -21.9251 -9.76168 10
      vertex -20.2254 -14.6946 10
    endloop
  endfacet
  facet normal 0 0 1
    outer loop
      vertex -24 0 10
      vertex -23.4755 4.98988 10
      vertex -24.4537 5.19779 10
    endloop
  endfacet
  facet normal 0 0 1
    outer loop
      vertex -5.74662 1.22148 13
      vertex -5.875 0 13
      vertex -5.74662 -1.22148 13
    endloop
  endfacet
  facet normal 0 0 1
    outer loop
      vertex -4.75298 -3.45324 13
      vertex -5.74662 1.22148 13
      vertex -5.36708 -2.38958 13
    endloop
  endfacet
  facet normal 0 0 1
    outer loop
      vertex -5.36708 -2.38958 13
      vertex -5.74662 1.22148 13
      vertex -5.74662 -1.22148 13
    endloop
  endfacet
  facet normal 0 0 1
    outer loop
      vertex -3.93114 -4.36598 13
      vertex -5.74662 1.22148 13
      vertex -4.75298 -3.45324 13
    endloop
  endfacet
  facet normal 0 0 1
    outer loop
      vertex -2.9375 -5.0879 13
      vertex -5.74662 1.22148 13
      vertex -3.93114 -4.36598 13
    endloop
  endfacet
  facet normal 0 0 1
    outer loop
      vertex -1.81547 -5.58746 13
      vertex -5.74662 1.22148 13
      vertex -2.9375 -5.0879 13
    endloop
  endfacet
  facet normal 0 0 1
    outer loop
      vertex -0.614105 -5.84282 13
      vertex -5.74662 1.22148 13
      vertex -1.81547 -5.58746 13
    endloop
  endfacet
  facet normal -0 0 1
    outer loop
      vertex 0.614105 -5.84282 13
      vertex -5.74662 1.22148 13
      vertex -0.614105 -5.84282 13
    endloop
  endfacet
  facet normal -0 0 1
    outer loop
      vertex 1.81547 -5.58746 13
      vertex -5.74662 1.22148 13
      vertex 0.614105 -5.84282 13
    endloop
  endfacet
  facet normal -0 -0 1
    outer loop
      vertex -1.92375 -2.13654 13
      vertex -5.74662 1.22148 13
      vertex 1.81547 -5.58746 13
    endloop
  endfacet
  facet normal 0 -0 1
    outer loop
      vertex 2 2.05186 13
      vertex 2 -2.05186 13
      vertex 5.36708 -2.38958 13
    endloop
  endfacet
  facet normal 0 -0 1
    outer loop
      vertex 2.9375 5.0879 13
      vertex -5.74662 1.22148 13
      vertex 3.93114 4.36598 13
    endloop
  endfacet
  facet normal 0 -0 1
    outer loop
      vertex 1.81547 5.58746 13
      vertex -5.74662 1.22148 13
      vertex 2.9375 5.0879 13
    endloop
  endfacet
  facet normal 0 -0 1
    outer loop
      vertex 0.614105 5.84282 13
      vertex -5.74662 1.22148 13
      vertex 1.81547 5.58746 13
    endloop
  endfacet
  facet normal 0 -0 1
    outer loop
      vertex -0.614105 5.84282 13
      vertex -5.74662 1.22148 13
      vertex 0.614105 5.84282 13
    endloop
  endfacet
  facet normal 0 -0 1
    outer loop
      vertex -1.81547 5.58746 13
      vertex -5.74662 1.22148 13
      vertex -0.614105 5.84282 13
    endloop
  endfacet
  facet normal 0 -0 1
    outer loop
      vertex -2.9375 5.0879 13
      vertex -5.74662 1.22148 13
      vertex -1.81547 5.58746 13
    endloop
  endfacet
  facet normal 0 -0 1
    outer loop
      vertex -3.93114 4.36598 13
      vertex -5.74662 1.22148 13
      vertex -2.9375 5.0879 13
    endloop
  endfacet
  facet normal 0 -0 1
    outer loop
      vertex -4.75298 3.45324 13
      vertex -5.74662 1.22148 13
      vertex -3.93114 4.36598 13
    endloop
  endfacet
  facet normal 0 -0 1
    outer loop
      vertex -5.36708 2.38958 13
      vertex -5.74662 1.22148 13
      vertex -4.75298 3.45324 13
    endloop
  endfacet
  facet normal 0 0 1
    outer loop
      vertex 2 2.05186 13
      vertex 5.875 0 13
      vertex 5.74662 1.22148 13
    endloop
  endfacet
  facet normal 0 0 1
    outer loop
      vertex -1.92375 2.13654 13
      vertex -5.74662 1.22148 13
      vertex -2 2.05186 13
    endloop
  endfacet
  facet normal 0 0 1
    outer loop
      vertex 0.888424 2.73429 13
      vertex 1.4375 2.48982 13
      vertex 4.75298 3.45324 13
    endloop
  endfacet
  facet normal 0 0 1
    outer loop
      vertex -1.4375 2.48982 13
      vertex -5.74662 1.22148 13
      vertex -1.92375 2.13654 13
    endloop
  endfacet
  facet normal 0 0 1
    outer loop
      vertex -0.888424 2.73429 13
      vertex -5.74662 1.22148 13
      vertex -1.4375 2.48982 13
    endloop
  endfacet
  facet normal 0 0 1
    outer loop
      vertex 3.93114 4.36598 13
      vertex -5.74662 1.22148 13
      vertex -0.888424 2.73429 13
    endloop
  endfacet
  facet normal 0 0 1
    outer loop
      vertex 2 2.05186 13
      vertex 5.74662 -1.22148 13
      vertex 5.875 0 13
    endloop
  endfacet
  facet normal 0 -0 1
    outer loop
      vertex 3.93114 4.36598 13
      vertex 0.300519 2.85925 13
      vertex 4.75298 3.45324 13
    endloop
  endfacet
  facet normal 0 0 1
    outer loop
      vertex 0.300519 2.85925 13
      vertex 0.888424 2.73429 13
      vertex 4.75298 3.45324 13
    endloop
  endfacet
  facet normal 0 -0 1
    outer loop
      vertex 4.75298 3.45324 13
      vertex 1.4375 2.48982 13
      vertex 5.36708 2.38958 13
    endloop
  endfacet
  facet normal 0 0 1
    outer loop
      vertex -0.888424 2.73429 13
      vertex -0.300519 2.85925 13
      vertex 3.93114 4.36598 13
    endloop
  endfacet
  facet normal 0 0 1
    outer loop
      vertex 1.4375 2.48982 13
      vertex 1.92375 2.13654 13
      vertex 5.36708 2.38958 13
    endloop
  endfacet
  facet normal 0 0 1
    outer loop
      vertex -0.300519 2.85925 13
      vertex 0.300519 2.85925 13
      vertex 3.93114 4.36598 13
    endloop
  endfacet
  facet normal 0 0 1
    outer loop
      vertex 1.92375 2.13654 13
      vertex 2 2.05186 13
      vertex 5.36708 2.38958 13
    endloop
  endfacet
  facet normal 0 0 1
    outer loop
      vertex 2 2.05186 13
      vertex 5.36708 -2.38958 13
      vertex 5.74662 -1.22148 13
    endloop
  endfacet
  facet normal -0 0 1
    outer loop
      vertex 5.36708 -2.38958 13
      vertex 2 -2.05186 13
      vertex 4.75298 -3.45324 13
    endloop
  endfacet
  facet normal 0 -0 1
    outer loop
      vertex 2 -2.05186 13
      vertex 1.92375 -2.13654 13
      vertex 4.75298 -3.45324 13
    endloop
  endfacet
  facet normal -0 0 1
    outer loop
      vertex 4.75298 -3.45324 13
      vertex 1.4375 -2.48982 13
      vertex 3.93114 -4.36598 13
    endloop
  endfacet
  facet normal -0 0 1
    outer loop
      vertex 3.93114 -4.36598 13
      vertex 0.888424 -2.73429 13
      vertex 2.9375 -5.0879 13
    endloop
  endfacet
  facet normal 0 -0 1
    outer loop
      vertex 0.888424 -2.73429 13
      vertex 0.300519 -2.85925 13
      vertex 2.9375 -5.0879 13
    endloop
  endfacet
  facet normal -0 -0 1
    outer loop
      vertex -1.4375 -2.48982 13
      vertex -1.92375 -2.13654 13
      vertex 1.81547 -5.58746 13
    endloop
  endfacet
  facet normal 0 0 1
    outer loop
      vertex 2.9375 -5.0879 13
      vertex -0.300519 -2.85925 13
      vertex -0.888424 -2.73429 13
    endloop
  endfacet
  facet normal -0 0 1
    outer loop
      vertex 2.9375 -5.0879 13
      vertex -1.4375 -2.48982 13
      vertex 1.81547 -5.58746 13
    endloop
  endfacet
  facet normal -0 -0 1
    outer loop
      vertex -2 -2.05186 13
      vertex -5.74662 1.22148 13
      vertex -1.92375 -2.13654 13
    endloop
  endfacet
  facet normal 0 0 1
    outer loop
      vertex 2 2.05186 13
      vertex 5.74662 1.22148 13
      vertex 5.36708 2.38958 13
    endloop
  endfacet
  facet normal -0 -0 1
    outer loop
      vertex -0.888424 -2.73429 13
      vertex -1.4375 -2.48982 13
      vertex 2.9375 -5.0879 13
    endloop
  endfacet
  facet normal 0 -0 1
    outer loop
      vertex 1.92375 -2.13654 13
      vertex 1.4375 -2.48982 13
      vertex 4.75298 -3.45324 13
    endloop
  endfacet
  facet normal 0 -0 1
    outer loop
      vertex 1.4375 -2.48982 13
      vertex 0.888424 -2.73429 13
      vertex 3.93114 -4.36598 13
    endloop
  endfacet
  facet normal 0 -0 1
    outer loop
      vertex 0.300519 -2.85925 13
      vertex -0.300519 -2.85925 13
      vertex 2.9375 -5.0879 13
    endloop
  endfacet
  facet normal 0 0 1
    outer loop
      vertex -2 -2.05186 13
      vertex -2 2.05186 13
      vertex -5.74662 1.22148 13
    endloop
  endfacet
  facet normal 0.994522 0.104529 0
    outer loop
      vertex -24 0 10
      vertex -23.4755 -4.98988 10
      vertex -23.4755 -4.98988 6
    endloop
  endfacet
  facet normal 0.994522 0.104529 0
    outer loop
      vertex -24 0 6
      vertex -24 0 10
      vertex -23.4755 -4.98988 6
    endloop
  endfacet
  facet normal 0.951057 0.309017 0
    outer loop
      vertex -23.4755 -4.98988 10
      vertex -21.9251 -9.76168 10
      vertex -21.9251 -9.76168 6
    endloop
  endfacet
  facet normal 0.951057 0.309017 0
    outer loop
      vertex -23.4755 -4.98988 6
      vertex -23.4755 -4.98988 10
      vertex -21.9251 -9.76168 6
    endloop
  endfacet
  facet normal 0.866025 0.5 0
    outer loop
      vertex -21.9251 -9.76168 10
      vertex -19.4164 -14.1068 10
      vertex -19.4164 -14.1068 6
    endloop
  endfacet
  facet normal 0.866025 0.5 0
    outer loop
      vertex -21.9251 -9.76168 6
      vertex -21.9251 -9.76168 10
      vertex -19.4164 -14.1068 6
    endloop
  endfacet
  facet normal 0.743145 0.669131 0
    outer loop
      vertex -19.4164 -14.1068 10
      vertex -16.0591 -17.8355 10
      vertex -16.0591 -17.8355 6
    endloop
  endfacet
  facet normal 0.743145 0.669131 0
    outer loop
      vertex -19.4164 -14.1068 6
      vertex -19.4164 -14.1068 10
      vertex -16.0591 -17.8355 6
    endloop
  endfacet
  facet normal 0.587785 0.809017 -0
    outer loop
      vertex -12 -20.7846 10
      vertex -12 -20.7846 6
      vertex -16.0591 -17.8355 10
    endloop
  endfacet
  facet normal 0.587785 0.809017 -0
    outer loop
      vertex -16.0591 -17.8355 10
      vertex -12 -20.7846 6
      vertex -16.0591 -17.8355 6
    endloop
  endfacet
  facet normal 0.406737 0.913546 -0
    outer loop
      vertex -7.41641 -22.8254 10
      vertex -7.41641 -22.8254 6
      vertex -12 -20.7846 10
    endloop
  endfacet
  facet normal 0.406737 0.913546 -0
    outer loop
      vertex -12 -20.7846 10
      vertex -7.41641 -22.8254 6
      vertex -12 -20.7846 6
    endloop
  endfacet
  facet normal 0.207912 0.978148 -0
    outer loop
      vertex -2.50868 -23.8685 10
      vertex -2.50868 -23.8685 6
      vertex -7.41641 -22.8254 10
    endloop
  endfacet
  facet normal 0.207912 0.978148 -0
    outer loop
      vertex -7.41641 -22.8254 10
      vertex -2.50868 -23.8685 6
      vertex -7.41641 -22.8254 6
    endloop
  endfacet
  facet normal 0 1 0
    outer loop
      vertex 2.50868 -23.8685 10
      vertex 2.50868 -23.8685 6
      vertex -2.50868 -23.8685 10
    endloop
  endfacet
  facet normal 0 1 -0
    outer loop
      vertex -2.50868 -23.8685 10
      vertex 2.50868 -23.8685 6
      vertex -2.50868 -23.8685 6
    endloop
  endfacet
  facet normal -0.207912 0.978148 0
    outer loop
      vertex 7.41641 -22.8254 10
      vertex 7.41641 -22.8254 6
      vertex 2.50868 -23.8685 10
    endloop
  endfacet
  facet normal -0.207912 0.978148 0
    outer loop
      vertex 2.50868 -23.8685 10
      vertex 7.41641 -22.8254 6
      vertex 2.50868 -23.8685 6
    endloop
  endfacet
  facet normal -0.406737 0.913546 0
    outer loop
      vertex 12 -20.7846 10
      vertex 12 -20.7846 6
      vertex 7.41641 -22.8254 10
    endloop
  endfacet
  facet normal -0.406737 0.913546 0
    outer loop
      vertex 7.41641 -22.8254 10
      vertex 12 -20.7846 6
      vertex 7.41641 -22.8254 6
    endloop
  endfacet
  facet normal -0.587785 0.809017 0
    outer loop
      vertex 16.0591 -17.8355 10
      vertex 16.0591 -17.8355 6
      vertex 12 -20.7846 10
    endloop
  endfacet
  facet normal -0.587785 0.809017 0
    outer loop
      vertex 12 -20.7846 10
      vertex 16.0591 -17.8355 6
      vertex 12 -20.7846 6
    endloop
  endfacet
  facet normal -0.743145 0.669131 0
    outer loop
      vertex 19.4164 -14.1068 10
      vertex 19.4164 -14.1068 6
      vertex 16.0591 -17.8355 10
    endloop
  endfacet
  facet normal -0.743145 0.669131 0
    outer loop
      vertex 16.0591 -17.8355 10
      vertex 19.4164 -14.1068 6
      vertex 16.0591 -17.8355 6
    endloop
  endfacet
  facet normal -0.866025 0.5 0
    outer loop
      vertex 21.9251 -9.76168 10
      vertex 21.9251 -9.76168 6
      vertex 19.4164 -14.1068 10
    endloop
  endfacet
  facet normal -0.866025 0.5 0
    outer loop
      vertex 19.4164 -14.1068 10
      vertex 21.9251 -9.76168 6
      vertex 19.4164 -14.1068 6
    endloop
  endfacet
  facet normal -0.951057 0.309017 0
    outer loop
      vertex 23.4755 -4.98988 10
      vertex 23.4755 -4.98988 6
      vertex 21.9251 -9.76168 10
    endloop
  endfacet
  facet normal -0.951057 0.309017 0
    outer loop
      vertex 21.9251 -9.76168 10
      vertex 23.4755 -4.98988 6
      vertex 21.9251 -9.76168 6
    endloop
  endfacet
  facet normal -0.994522 0.104529 0
    outer loop
      vertex 24 0 10
      vertex 24 0 6
      vertex 23.4755 -4.98988 10
    endloop
  endfacet
  facet normal -0.994522 0.104529 0
    outer loop
      vertex 23.4755 -4.98988 10
      vertex 24 0 6
      vertex 23.4755 -4.98988 6
    endloop
  endfacet
  facet normal -0.994522 -0.104529 0
    outer loop
      vertex 24 0 10
      vertex 23.4755 4.98988 10
      vertex 24 0 6
    endloop
  endfacet
  facet normal -0.994522 -0.104529 0
    outer loop
      vertex 24 0 6
      vertex 23.4755 4.98988 10
      vertex 23.4755 4.98988 6
    endloop
  endfacet
  facet normal -0.951057 -0.309017 0
    outer loop
      vertex 23.4755 4.98988 10
      vertex 21.9251 9.76168 10
      vertex 23.4755 4.98988 6
    endloop
  endfacet
  facet normal -0.951057 -0.309017 0
    outer loop
      vertex 23.4755 4.98988 6
      vertex 21.9251 9.76168 10
      vertex 21.9251 9.76168 6
    endloop
  endfacet
  facet normal -0.866025 -0.5 0
    outer loop
      vertex 21.9251 9.76168 10
      vertex 19.4164 14.1068 10
      vertex 21.9251 9.76168 6
    endloop
  endfacet
  facet normal -0.866025 -0.5 0
    outer loop
      vertex 21.9251 9.76168 6
      vertex 19.4164 14.1068 10
      vertex 19.4164 14.1068 6
    endloop
  endfacet
  facet normal -0.743145 -0.669131 0
    outer loop
      vertex 19.4164 14.1068 10
      vertex 16.0591 17.8355 10
      vertex 19.4164 14.1068 6
    endloop
  endfacet
  facet normal -0.743145 -0.669131 0
    outer loop
      vertex 19.4164 14.1068 6
      vertex 16.0591 17.8355 10
      vertex 16.0591 17.8355 6
    endloop
  endfacet
  facet normal -0.587785 -0.809017 -0
    outer loop
      vertex 16.0591 17.8355 6
      vertex 16.0591 17.8355 10
      vertex 12 20.7846 10
    endloop
  endfacet
  facet normal -0.587785 -0.809017 -0
    outer loop
      vertex 12 20.7846 6
      vertex 16.0591 17.8355 6
      vertex 12 20.7846 10
    endloop
  endfacet
  facet normal -0.406737 -0.913546 -0
    outer loop
      vertex 12 20.7846 6
      vertex 12 20.7846 10
      vertex 7.41641 22.8254 10
    endloop
  endfacet
  facet normal -0.406737 -0.913546 -0
    outer loop
      vertex 7.41641 22.8254 6
      vertex 12 20.7846 6
      vertex 7.41641 22.8254 10
    endloop
  endfacet
  facet normal -0.207912 -0.978148 -0
    outer loop
      vertex 7.41641 22.8254 6
      vertex 7.41641 22.8254 10
      vertex 2.50868 23.8685 10
    endloop
  endfacet
  facet normal -0.207912 -0.978148 -0
    outer loop
      vertex 2.50868 23.8685 6
      vertex 7.41641 22.8254 6
      vertex 2.50868 23.8685 10
    endloop
  endfacet
  facet normal 0 -1 0
    outer loop
      vertex 2.50868 23.8685 6
      vertex 2.50868 23.8685 10
      vertex -2.50868 23.8685 10
    endloop
  endfacet
  facet normal -0 -1 -0
    outer loop
      vertex -2.50868 23.8685 6
      vertex 2.50868 23.8685 6
      vertex -2.50868 23.8685 10
    endloop
  endfacet
  facet normal 0.207912 -0.978148 0
    outer loop
      vertex -2.50868 23.8685 6
      vertex -2.50868 23.8685 10
      vertex -7.41641 22.8254 10
    endloop
  endfacet
  facet normal 0.207912 -0.978148 0
    outer loop
      vertex -7.41641 22.8254 6
      vertex -2.50868 23.8685 6
      vertex -7.41641 22.8254 10
    endloop
  endfacet
  facet normal 0.406737 -0.913546 0
    outer loop
      vertex -7.41641 22.8254 6
      vertex -7.41641 22.8254 10
      vertex -12 20.7846 10
    endloop
  endfacet
  facet normal 0.406737 -0.913546 0
    outer loop
      vertex -12 20.7846 6
      vertex -7.41641 22.8254 6
      vertex -12 20.7846 10
    endloop
  endfacet
  facet normal 0.587785 -0.809017 0
    outer loop
      vertex -12 20.7846 6
      vertex -12 20.7846 10
      vertex -16.0591 17.8355 10
    endloop
  endfacet
  facet normal 0.587785 -0.809017 0
    outer loop
      vertex -16.0591 17.8355 6
      vertex -12 20.7846 6
      vertex -16.0591 17.8355 10
    endloop
  endfacet
  facet normal 0.743145 -0.669131 0
    outer loop
      vertex -16.0591 17.8355 6
      vertex -16.0591 17.8355 10
      vertex -19.4164 14.1068 10
    endloop
  endfacet
  facet normal 0.743145 -0.669131 0
    outer loop
      vertex -19.4164 14.1068 6
      vertex -16.0591 17.8355 6
      vertex -19.4164 14.1068 10
    endloop
  endfacet
  facet normal 0.866025 -0.5 0
    outer loop
      vertex -19.4164 14.1068 6
      vertex -19.4164 14.1068 10
      vertex -21.9251 9.76168 10
    endloop
  endfacet
  facet normal 0.866025 -0.5 0
    outer loop
      vertex -21.9251 9.76168 6
      vertex -19.4164 14.1068 6
      vertex -21.9251 9.76168 10
    endloop
  endfacet
  facet normal 0.951057 -0.309017 0
    outer loop
      vertex -21.9251 9.76168 6
      vertex -21.9251 9.76168 10
      vertex -23.4755 4.98988 10
    endloop
  endfacet
  facet normal 0.951057 -0.309017 0
    outer loop
      vertex -23.4755 4.98988 6
      vertex -21.9251 9.76168 6
      vertex -23.4755 4.98988 10
    endloop
  endfacet
  facet normal 0.994522 -0.104529 0
    outer loop
      vertex -23.4755 4.98988 6
      vertex -23.4755 4.98988 10
      vertex -24 0 10
    endloop
  endfacet
  facet normal 0.994522 -0.104529 0
    outer loop
      vertex -24 0 6
      vertex -23.4755 4.98988 6
      vertex -24 0 10
    endloop
  endfacet
  facet normal -0.994522 0.104529 0
    outer loop
      vertex -5.875 0 6
      vertex -5.875 0 13
      vertex -5.74662 1.22148 6
    endloop
  endfacet
  facet normal -0.994522 0.104529 0
    outer loop
      vertex -5.74662 1.22148 6
      vertex -5.875 0 13
      vertex -5.74662 1.22148 13
    endloop
  endfacet
  facet normal -0.951057 0.309016 0
    outer loop
      vertex -5.74662 1.22148 6
      vertex -5.74662 1.22148 13
      vertex -5.36708 2.38958 6
    endloop
  endfacet
  facet normal -0.951057 0.309016 0
    outer loop
      vertex -5.36708 2.38958 6
      vertex -5.74662 1.22148 13
      vertex -5.36708 2.38958 13
    endloop
  endfacet
  facet normal -0.866025 0.5 0
    outer loop
      vertex -5.36708 2.38958 6
      vertex -5.36708 2.38958 13
      vertex -4.75298 3.45324 6
    endloop
  endfacet
  facet normal -0.866025 0.5 0
    outer loop
      vertex -4.75298 3.45324 6
      vertex -5.36708 2.38958 13
      vertex -4.75298 3.45324 13
    endloop
  endfacet
  facet normal -0.743145 0.669131 0
    outer loop
      vertex -4.75298 3.45324 6
      vertex -4.75298 3.45324 13
      vertex -3.93114 4.36598 6
    endloop
  endfacet
  facet normal -0.743145 0.669131 0
    outer loop
      vertex -3.93114 4.36598 6
      vertex -4.75298 3.45324 13
      vertex -3.93114 4.36598 13
    endloop
  endfacet
  facet normal -0.587785 0.809017 0
    outer loop
      vertex -3.93114 4.36598 6
      vertex -3.93114 4.36598 13
      vertex -2.9375 5.0879 6
    endloop
  endfacet
  facet normal -0.587785 0.809017 0
    outer loop
      vertex -2.9375 5.0879 6
      vertex -3.93114 4.36598 13
      vertex -2.9375 5.0879 13
    endloop
  endfacet
  facet normal -0.406737 0.913545 0
    outer loop
      vertex -2.9375 5.0879 6
      vertex -2.9375 5.0879 13
      vertex -1.81547 5.58746 6
    endloop
  endfacet
  facet normal -0.406737 0.913545 0
    outer loop
      vertex -1.81547 5.58746 6
      vertex -2.9375 5.0879 13
      vertex -1.81547 5.58746 13
    endloop
  endfacet
  facet normal -0.207912 0.978148 0
    outer loop
      vertex -1.81547 5.58746 6
      vertex -1.81547 5.58746 13
      vertex -0.614105 5.84282 6
    endloop
  endfacet
  facet normal -0.207912 0.978148 0
    outer loop
      vertex -0.614105 5.84282 6
      vertex -1.81547 5.58746 13
      vertex -0.614105 5.84282 13
    endloop
  endfacet
  facet normal 0 1 0
    outer loop
      vertex -0.614105 5.84282 6
      vertex -0.614105 5.84282 13
      vertex 0.614105 5.84282 6
    endloop
  endfacet
  facet normal 0 1 0
    outer loop
      vertex 0.614105 5.84282 6
      vertex -0.614105 5.84282 13
      vertex 0.614105 5.84282 13
    endloop
  endfacet
  facet normal 0.207912 0.978148 0
    outer loop
      vertex 0.614105 5.84282 6
      vertex 0.614105 5.84282 13
      vertex 1.81547 5.58746 6
    endloop
  endfacet
  facet normal 0.207912 0.978148 0
    outer loop
      vertex 1.81547 5.58746 6
      vertex 0.614105 5.84282 13
      vertex 1.81547 5.58746 13
    endloop
  endfacet
  facet normal 0.406737 0.913545 0
    outer loop
      vertex 1.81547 5.58746 6
      vertex 1.81547 5.58746 13
      vertex 2.9375 5.0879 6
    endloop
  endfacet
  facet normal 0.406737 0.913545 0
    outer loop
      vertex 2.9375 5.0879 6
      vertex 1.81547 5.58746 13
      vertex 2.9375 5.0879 13
    endloop
  endfacet
  facet normal 0.587785 0.809017 0
    outer loop
      vertex 2.9375 5.0879 6
      vertex 2.9375 5.0879 13
      vertex 3.93114 4.36598 6
    endloop
  endfacet
  facet normal 0.587785 0.809017 0
    outer loop
      vertex 3.93114 4.36598 6
      vertex 2.9375 5.0879 13
      vertex 3.93114 4.36598 13
    endloop
  endfacet
  facet normal 0.743145 0.669131 0
    outer loop
      vertex 4.75298 3.45324 6
      vertex 3.93114 4.36598 6
      vertex 3.93114 4.36598 13
    endloop
  endfacet
  facet normal 0.743145 0.669131 -0
    outer loop
      vertex 4.75298 3.45324 13
      vertex 4.75298 3.45324 6
      vertex 3.93114 4.36598 13
    endloop
  endfacet
  facet normal 0.866025 0.5 0
    outer loop
      vertex 5.36708 2.38958 6
      vertex 4.75298 3.45324 6
      vertex 4.75298 3.45324 13
    endloop
  endfacet
  facet normal 0.866025 0.5 -0
    outer loop
      vertex 5.36708 2.38958 13
      vertex 5.36708 2.38958 6
      vertex 4.75298 3.45324 13
    endloop
  endfacet
  facet normal 0.951057 0.309016 0
    outer loop
      vertex 5.74662 1.22148 6
      vertex 5.36708 2.38958 6
      vertex 5.36708 2.38958 13
    endloop
  endfacet
  facet normal 0.951057 0.309016 -0
    outer loop
      vertex 5.74662 1.22148 13
      vertex 5.74662 1.22148 6
      vertex 5.36708 2.38958 13
    endloop
  endfacet
  facet normal 0.994522 0.104529 0
    outer loop
      vertex 5.875 0 6
      vertex 5.74662 1.22148 6
      vertex 5.74662 1.22148 13
    endloop
  endfacet
  facet normal 0.994522 0.104529 -0
    outer loop
      vertex 5.875 0 13
      vertex 5.875 0 6
      vertex 5.74662 1.22148 13
    endloop
  endfacet
  facet normal 0.994522 -0.104529 0
    outer loop
      vertex 5.74662 -1.22148 13
      vertex 5.74662 -1.22148 6
      vertex 5.875 0 6
    endloop
  endfacet
  facet normal 0.994522 -0.104529 0
    outer loop
      vertex 5.875 0 13
      vertex 5.74662 -1.22148 13
      vertex 5.875 0 6
    endloop
  endfacet
  facet normal 0.951057 -0.309016 0
    outer loop
      vertex 5.36708 -2.38958 13
      vertex 5.36708 -2.38958 6
      vertex 5.74662 -1.22148 6
    endloop
  endfacet
  facet normal 0.951057 -0.309016 0
    outer loop
      vertex 5.74662 -1.22148 13
      vertex 5.36708 -2.38958 13
      vertex 5.74662 -1.22148 6
    endloop
  endfacet
  facet normal 0.866025 -0.5 0
    outer loop
      vertex 4.75298 -3.45324 13
      vertex 4.75298 -3.45324 6
      vertex 5.36708 -2.38958 6
    endloop
  endfacet
  facet normal 0.866025 -0.5 0
    outer loop
      vertex 5.36708 -2.38958 13
      vertex 4.75298 -3.45324 13
      vertex 5.36708 -2.38958 6
    endloop
  endfacet
  facet normal 0.743145 -0.669131 0
    outer loop
      vertex 3.93114 -4.36598 13
      vertex 3.93114 -4.36598 6
      vertex 4.75298 -3.45324 6
    endloop
  endfacet
  facet normal 0.743145 -0.669131 0
    outer loop
      vertex 4.75298 -3.45324 13
      vertex 3.93114 -4.36598 13
      vertex 4.75298 -3.45324 6
    endloop
  endfacet
  facet normal 0.587785 -0.809017 0
    outer loop
      vertex 2.9375 -5.0879 13
      vertex 2.9375 -5.0879 6
      vertex 3.93114 -4.36598 6
    endloop
  endfacet
  facet normal 0.587785 -0.809017 0
    outer loop
      vertex 3.93114 -4.36598 13
      vertex 2.9375 -5.0879 13
      vertex 3.93114 -4.36598 6
    endloop
  endfacet
  facet normal 0.406737 -0.913545 0
    outer loop
      vertex 1.81547 -5.58746 13
      vertex 1.81547 -5.58746 6
      vertex 2.9375 -5.0879 6
    endloop
  endfacet
  facet normal 0.406737 -0.913545 0
    outer loop
      vertex 2.9375 -5.0879 13
      vertex 1.81547 -5.58746 13
      vertex 2.9375 -5.0879 6
    endloop
  endfacet
  facet normal 0.207912 -0.978148 0
    outer loop
      vertex 0.614105 -5.84282 13
      vertex 0.614105 -5.84282 6
      vertex 1.81547 -5.58746 6
    endloop
  endfacet
  facet normal 0.207912 -0.978148 0
    outer loop
      vertex 1.81547 -5.58746 13
      vertex 0.614105 -5.84282 13
      vertex 1.81547 -5.58746 6
    endloop
  endfacet
  facet normal 0 -1 0
    outer loop
      vertex -0.614105 -5.84282 13
      vertex -0.614105 -5.84282 6
      vertex 0.614105 -5.84282 6
    endloop
  endfacet
  facet normal 0 -1 0
    outer loop
      vertex 0.614105 -5.84282 13
      vertex -0.614105 -5.84282 13
      vertex 0.614105 -5.84282 6
    endloop
  endfacet
  facet normal -0.207912 -0.978148 0
    outer loop
      vertex -1.81547 -5.58746 13
      vertex -1.81547 -5.58746 6
      vertex -0.614105 -5.84282 6
    endloop
  endfacet
  facet normal -0.207912 -0.978148 0
    outer loop
      vertex -0.614105 -5.84282 13
      vertex -1.81547 -5.58746 13
      vertex -0.614105 -5.84282 6
    endloop
  endfacet
  facet normal -0.406737 -0.913545 0
    outer loop
      vertex -2.9375 -5.0879 13
      vertex -2.9375 -5.0879 6
      vertex -1.81547 -5.58746 6
    endloop
  endfacet
  facet normal -0.406737 -0.913545 0
    outer loop
      vertex -1.81547 -5.58746 13
      vertex -2.9375 -5.0879 13
      vertex -1.81547 -5.58746 6
    endloop
  endfacet
  facet normal -0.587785 -0.809017 0
    outer loop
      vertex -3.93114 -4.36598 13
      vertex -3.93114 -4.36598 6
      vertex -2.9375 -5.0879 6
    endloop
  endfacet
  facet normal -0.587785 -0.809017 0
    outer loop
      vertex -2.9375 -5.0879 13
      vertex -3.93114 -4.36598 13
      vertex -2.9375 -5.0879 6
    endloop
  endfacet
  facet normal -0.743145 -0.669131 -0
    outer loop
      vertex -4.75298 -3.45324 6
      vertex -3.93114 -4.36598 6
      vertex -4.75298 -3.45324 13
    endloop
  endfacet
  facet normal -0.743145 -0.669131 0
    outer loop
      vertex -4.75298 -3.45324 13
      vertex -3.93114 -4.36598 6
      vertex -3.93114 -4.36598 13
    endloop
  endfacet
  facet normal -0.866025 -0.5 -0
    outer loop
      vertex -5.36708 -2.38958 6
      vertex -4.75298 -3.45324 6
      vertex -5.36708 -2.38958 13
    endloop
  endfacet
  facet normal -0.866025 -0.5 0
    outer loop
      vertex -5.36708 -2.38958 13
      vertex -4.75298 -3.45324 6
      vertex -4.75298 -3.45324 13
    endloop
  endfacet
  facet normal -0.951057 -0.309016 -0
    outer loop
      vertex -5.74662 -1.22148 6
      vertex -5.36708 -2.38958 6
      vertex -5.74662 -1.22148 13
    endloop
  endfacet
  facet normal -0.951057 -0.309016 0
    outer loop
      vertex -5.74662 -1.22148 13
      vertex -5.36708 -2.38958 6
      vertex -5.36708 -2.38958 13
    endloop
  endfacet
  facet normal -0.994522 -0.104529 -0
    outer loop
      vertex -5.875 0 6
      vertex -5.74662 -1.22148 6
      vertex -5.875 0 13
    endloop
  endfacet
  facet normal -0.994522 -0.104529 0
    outer loop
      vertex -5.875 0 13
      vertex -5.74662 -1.22148 6
      vertex -5.74662 -1.22148 13
    endloop
  endfacet
  facet normal 0 0 1
    outer loop
      vertex -23.4755 -4.98988 6
      vertex -21.9251 -9.76168 6
      vertex -19.4164 -14.1068 6
    endloop
  endfacet
  facet normal 0 0 1
    outer loop
      vertex -12 -20.7846 6
      vertex -23.4755 -4.98988 6
      vertex -16.0591 -17.8355 6
    endloop
  endfacet
  facet normal 0 0 1
    outer loop
      vertex -16.0591 -17.8355 6
      vertex -23.4755 -4.98988 6
      vertex -19.4164 -14.1068 6
    endloop
  endfacet
  facet normal 0 0 1
    outer loop
      vertex -7.41641 -22.8254 6
      vertex -23.4755 -4.98988 6
      vertex -12 -20.7846 6
    endloop
  endfacet
  facet normal 0 0 1
    outer loop
      vertex -2.50868 -23.8685 6
      vertex -23.4755 -4.98988 6
      vertex -7.41641 -22.8254 6
    endloop
  endfacet
  facet normal -0 0 1
    outer loop
      vertex 2.50868 -23.8685 6
      vertex -23.4755 -4.98988 6
      vertex -2.50868 -23.8685 6
    endloop
  endfacet
  facet normal -0 0 1
    outer loop
      vertex 7.41641 -22.8254 6
      vertex -23.4755 -4.98988 6
      vertex 2.50868 -23.8685 6
    endloop
  endfacet
  facet normal -0 0 1
    outer loop
      vertex 12 -20.7846 6
      vertex -23.4755 -4.98988 6
      vertex 7.41641 -22.8254 6
    endloop
  endfacet
  facet normal -0 0 1
    outer loop
      vertex 16.0591 -17.8355 6
      vertex -23.4755 -4.98988 6
      vertex 12 -20.7846 6
    endloop
  endfacet
  facet normal -0 0 1
    outer loop
      vertex 19.4164 -14.1068 6
      vertex -23.4755 -4.98988 6
      vertex 16.0591 -17.8355 6
    endloop
  endfacet
  facet normal -0 0 1
    outer loop
      vertex 21.9251 -9.76168 6
      vertex -23.4755 -4.98988 6
      vertex 19.4164 -14.1068 6
    endloop
  endfacet
  facet normal -0 -0 1
    outer loop
      vertex -0.614105 -5.84282 6
      vertex -23.4755 -4.98988 6
      vertex 21.9251 -9.76168 6
    endloop
  endfacet
  facet normal 0 0 1
    outer loop
      vertex -0.614105 -5.84282 6
      vertex -1.81547 -5.58746 6
      vertex -23.4755 -4.98988 6
    endloop
  endfacet
  facet normal 0 -0 1
    outer loop
      vertex 3.93114 -4.36598 6
      vertex 2.9375 -5.0879 6
      vertex 23.4755 -4.98988 6
    endloop
  endfacet
  facet normal 0 -0 1
    outer loop
      vertex 5.74662 -1.22148 6
      vertex 5.36708 -2.38958 6
      vertex 24 0 6
    endloop
  endfacet
  facet normal 0 0 1
    outer loop
      vertex 1.81547 5.58746 6
      vertex 2.9375 5.0879 6
      vertex 19.4164 14.1068 6
    endloop
  endfacet
  facet normal 0 -0 1
    outer loop
      vertex 12 20.7846 6
      vertex -23.4755 -4.98988 6
      vertex 16.0591 17.8355 6
    endloop
  endfacet
  facet normal 0 -0 1
    outer loop
      vertex 7.41641 22.8254 6
      vertex -23.4755 -4.98988 6
      vertex 12 20.7846 6
    endloop
  endfacet
  facet normal 0 -0 1
    outer loop
      vertex 2.50868 23.8685 6
      vertex -23.4755 -4.98988 6
      vertex 7.41641 22.8254 6
    endloop
  endfacet
  facet normal 0 -0 1
    outer loop
      vertex -2.50868 23.8685 6
      vertex -23.4755 -4.98988 6
      vertex 2.50868 23.8685 6
    endloop
  endfacet
  facet normal 0 -0 1
    outer loop
      vertex -7.41641 22.8254 6
      vertex -23.4755 -4.98988 6
      vertex -2.50868 23.8685 6
    endloop
  endfacet
  facet normal 0 -0 1
    outer loop
      vertex -12 20.7846 6
      vertex -23.4755 -4.98988 6
      vertex -7.41641 22.8254 6
    endloop
  endfacet
  facet normal 0 -0 1
    outer loop
      vertex -16.0591 17.8355 6
      vertex -23.4755 -4.98988 6
      vertex -12 20.7846 6
    endloop
  endfacet
  facet normal 0 -0 1
    outer loop
      vertex -19.4164 14.1068 6
      vertex -23.4755 -4.98988 6
      vertex -16.0591 17.8355 6
    endloop
  endfacet
  facet normal 0 -0 1
    outer loop
      vertex -21.9251 9.76168 6
      vertex -23.4755 -4.98988 6
      vertex -19.4164 14.1068 6
    endloop
  endfacet
  facet normal 0 -0 1
    outer loop
      vertex -23.4755 4.98988 6
      vertex -23.4755 -4.98988 6
      vertex -21.9251 9.76168 6
    endloop
  endfacet
  facet normal 0 0 1
    outer loop
      vertex -24 0 6
      vertex -23.4755 -4.98988 6
      vertex -23.4755 4.98988 6
    endloop
  endfacet
  facet normal -0 0 1
    outer loop
      vertex -5.36708 2.38958 6
      vertex -4.75298 3.45324 6
      vertex -23.4755 -4.98988 6
    endloop
  endfacet
  facet normal 0 0 1
    outer loop
      vertex -5.36708 2.38958 6
      vertex -23.4755 -4.98988 6
      vertex -5.74662 1.22148 6
    endloop
  endfacet
  facet normal 0 0 1
    outer loop
      vertex -2.9375 5.0879 6
      vertex -1.81547 5.58746 6
      vertex 16.0591 17.8355 6
    endloop
  endfacet
  facet normal 0 0 1
    outer loop
      vertex 3.93114 4.36598 6
      vertex 4.75298 3.45324 6
      vertex 21.9251 9.76168 6
    endloop
  endfacet
  facet normal 0 0 1
    outer loop
      vertex -3.93114 4.36598 6
      vertex -23.4755 -4.98988 6
      vertex -4.75298 3.45324 6
    endloop
  endfacet
  facet normal 0 0 1
    outer loop
      vertex -2.9375 5.0879 6
      vertex -23.4755 -4.98988 6
      vertex -3.93114 4.36598 6
    endloop
  endfacet
  facet normal 0 0 1
    outer loop
      vertex -1.81547 5.58746 6
      vertex -0.614105 5.84282 6
      vertex 16.0591 17.8355 6
    endloop
  endfacet
  facet normal 0 0 1
    outer loop
      vertex 16.0591 17.8355 6
      vertex -23.4755 -4.98988 6
      vertex -2.9375 5.0879 6
    endloop
  endfacet
  facet normal 0 -0 1
    outer loop
      vertex 16.0591 17.8355 6
      vertex -0.614105 5.84282 6
      vertex 19.4164 14.1068 6
    endloop
  endfacet
  facet normal 0 0 1
    outer loop
      vertex -0.614105 5.84282 6
      vertex 0.614105 5.84282 6
      vertex 19.4164 14.1068 6
    endloop
  endfacet
  facet normal 0 -0 1
    outer loop
      vertex 19.4164 14.1068 6
      vertex 2.9375 5.0879 6
      vertex 21.9251 9.76168 6
    endloop
  endfacet
  facet normal 0 0 1
    outer loop
      vertex 2.9375 5.0879 6
      vertex 3.93114 4.36598 6
      vertex 21.9251 9.76168 6
    endloop
  endfacet
  facet normal 0 -0 1
    outer loop
      vertex 21.9251 9.76168 6
      vertex 4.75298 3.45324 6
      vertex 23.4755 4.98988 6
    endloop
  endfacet
  facet normal 0 0 1
    outer loop
      vertex 4.75298 3.45324 6
      vertex 5.36708 2.38958 6
      vertex 23.4755 4.98988 6
    endloop
  endfacet
  facet normal 0 -0 1
    outer loop
      vertex 23.4755 4.98988 6
      vertex 5.74662 1.22148 6
      vertex 24 0 6
    endloop
  endfacet
  facet normal 0 0 1
    outer loop
      vertex 5.74662 1.22148 6
      vertex 5.875 0 6
      vertex 24 0 6
    endloop
  endfacet
  facet normal 0 -0 1
    outer loop
      vertex 5.875 0 6
      vertex 5.74662 -1.22148 6
      vertex 24 0 6
    endloop
  endfacet
  facet normal 0 0 1
    outer loop
      vertex 24 0 6
      vertex 5.36708 -2.38958 6
      vertex 23.4755 -4.98988 6
    endloop
  endfacet
  facet normal -0 0 1
    outer loop
      vertex -3.93114 -4.36598 6
      vertex -4.75298 -3.45324 6
      vertex -23.4755 -4.98988 6
    endloop
  endfacet
  facet normal 0 -0 1
    outer loop
      vertex 5.36708 -2.38958 6
      vertex 4.75298 -3.45324 6
      vertex 23.4755 -4.98988 6
    endloop
  endfacet
  facet normal 0 -0 1
    outer loop
      vertex 4.75298 -3.45324 6
      vertex 3.93114 -4.36598 6
      vertex 23.4755 -4.98988 6
    endloop
  endfacet
  facet normal 0 0 1
    outer loop
      vertex 23.4755 -4.98988 6
      vertex 2.9375 -5.0879 6
      vertex 21.9251 -9.76168 6
    endloop
  endfacet
  facet normal 0 -0 1
    outer loop
      vertex 2.9375 -5.0879 6
      vertex 1.81547 -5.58746 6
      vertex 21.9251 -9.76168 6
    endloop
  endfacet
  facet normal 0 -0 1
    outer loop
      vertex 1.81547 -5.58746 6
      vertex 0.614105 -5.84282 6
      vertex 21.9251 -9.76168 6
    endloop
  endfacet
  facet normal 0 -0 1
    outer loop
      vertex 0.614105 -5.84282 6
      vertex -0.614105 -5.84282 6
      vertex 21.9251 -9.76168 6
    endloop
  endfacet
  facet normal 0 0 1
    outer loop
      vertex -1.81547 -5.58746 6
      vertex -2.9375 -5.0879 6
      vertex -23.4755 -4.98988 6
    endloop
  endfacet
  facet normal -0 0 1
    outer loop
      vertex -4.75298 -3.45324 6
      vertex -5.36708 -2.38958 6
      vertex -23.4755 -4.98988 6
    endloop
  endfacet
  facet normal -0 0 1
    outer loop
      vertex -5.36708 -2.38958 6
      vertex -5.74662 -1.22148 6
      vertex -23.4755 -4.98988 6
    endloop
  endfacet
  facet normal 0 0 1
    outer loop
      vertex -2.9375 -5.0879 6
      vertex -3.93114 -4.36598 6
      vertex -23.4755 -4.98988 6
    endloop
  endfacet
  facet normal 0 -0 1
    outer loop
      vertex -5.875 0 6
      vertex -23.4755 -4.98988 6
      vertex -5.74662 -1.22148 6
    endloop
  endfacet
  facet normal -0 0 1
    outer loop
      vertex -5.875 0 6
      vertex -5.74662 1.22148 6
      vertex -23.4755 -4.98988 6
    endloop
  endfacet
  facet normal 0 0 1
    outer loop
      vertex 0.614105 5.84282 6
      vertex 1.81547 5.58746 6
      vertex 19.4164 14.1068 6
    endloop
  endfacet
  facet normal 0 0 1
    outer loop
      vertex 5.36708 2.38958 6
      vertex 5.74662 1.22148 6
      vertex 23.4755 4.98988 6
    endloop
  endfacet
endsolid OpenSCAD_Model
